<svg viewBox="0 0 2429 785" xmlns="http://www.w3.org/2000/svg">
<path d="M1575.95 625.51L1583.04 544.37H1601.28L1595.54 610.08H1627.55L1626.2 625.51H1575.95Z" fill="#FF741F"/>
<path d="M1640.22 625.51L1647.31 544.37H1665.55L1658.46 625.51H1640.22Z" fill="#FF741F"/>
<path d="M1691.58 625.51L1674.22 544.37H1693.57L1699.94 582.2C1700.79 586.68 1701.51 591.02 1702.09 595.2C1702.67 599.39 1703.39 603.73 1704.24 608.2H1704.74C1706.29 603.72 1707.74 599.39 1709.1 595.2C1710.46 591.01 1711.91 586.67 1713.46 582.2L1726.32 544.37H1744.93L1713.53 625.51H1691.57H1691.58Z" fill="#FF741F"/>
<path d="M1746.54 625.51L1753.63 544.37H1804.25L1802.9 559.8H1770.52L1769.1 576.1H1796.64L1795.3 591.41H1767.76L1766.13 610.08H1799.75L1798.4 625.51H1746.54Z" fill="#FF741F"/>
<path d="M1855.1 625.51L1860.84 559.8H1838.63L1839.98 544.37H1902.76L1901.41 559.8H1879.2L1873.46 625.51H1855.1Z" fill="#FF741F"/>
<path d="M1908.33 625.52L1915.42 544.38H1944.58C1948.88 544.38 1952.88 544.8 1956.57 545.63C1960.26 546.46 1963.43 547.85 1966.07 549.8C1968.71 551.75 1970.72 554.34 1972.09 557.58C1973.46 560.82 1973.94 564.84 1973.52 569.65C1973 575.62 1971.27 580.54 1968.32 584.4C1965.38 588.26 1961.63 591.14 1957.08 593.05L1972.61 625.53H1952.14L1939.18 596.28H1929.13L1926.58 625.53H1908.34L1908.33 625.52ZM1930.39 581.71H1939.82C1944.62 581.71 1948.37 580.69 1951.07 578.66C1953.77 576.63 1955.29 573.62 1955.64 569.64C1955.99 565.66 1954.97 562.88 1952.58 561.3C1950.2 559.72 1946.6 558.94 1941.81 558.94H1932.38L1930.39 581.72V581.71Z" fill="#FF741F"/>
<path d="M1973.09 625.52L2005.49 544.38H2027.45L2045.67 625.52H2026.31L2023.03 606.23H1998.34L1991.69 625.52H1973.08H1973.09ZM2005.96 584.45L2003.32 591.92H2020.57L2019.36 584.45C2018.56 580.39 2017.82 576.07 2017.14 571.51C2016.46 566.95 2015.77 562.55 2015.07 558.32H2014.57C2013.2 562.64 2011.8 567.05 2010.37 571.57C2008.94 576.09 2007.47 580.39 2005.96 584.45Z" fill="#FF741F"/>
<path d="M2086.86 627.01C2081.73 627.01 2076.97 626.12 2072.58 624.33C2068.19 622.55 2064.42 619.91 2061.3 616.43C2058.17 612.95 2055.84 608.61 2054.31 603.43C2052.78 598.25 2052.31 592.25 2052.9 585.45C2053.49 578.73 2055.04 572.74 2057.57 567.47C2060.1 562.2 2063.26 557.74 2067.05 554.09C2070.84 550.44 2075.14 547.66 2079.94 545.75C2084.74 543.84 2089.7 542.89 2094.83 542.89C2099.96 542.89 2104.62 543.95 2108.57 546.06C2112.52 548.18 2115.74 550.64 2118.22 553.46L2107.52 565.16C2105.62 563.25 2103.58 561.7 2101.41 560.49C2099.24 559.29 2096.71 558.69 2093.81 558.69C2091.08 558.69 2088.44 559.29 2085.9 560.49C2083.35 561.69 2081.09 563.41 2079.12 565.66C2077.15 567.9 2075.5 570.64 2074.18 573.87C2072.86 577.11 2072.03 580.76 2071.67 584.82C2070.94 593.2 2072.15 599.69 2075.3 604.3C2078.45 608.9 2083.01 611.21 2088.96 611.21C2092.27 611.21 2095.29 610.48 2098.02 609.03C2100.75 607.58 2103.2 605.78 2105.38 603.62L2114.06 615.07C2106.58 623.03 2097.51 627.02 2086.84 627.02L2086.86 627.01Z" fill="#FF741F"/>
<path d="M2125.45 625.52L2132.54 544.38H2150.78L2147.88 577.61H2148.38L2175.35 544.38H2195.45L2168.18 576.74L2192.83 625.53H2172.85L2156.11 591.31L2145.6 603.75L2143.7 625.53H2125.46L2125.45 625.52Z" fill="#FF741F"/>
<path d="M2201.63 625.52L2208.72 544.38H2226.96L2219.87 625.52H2201.63Z" fill="#FF741F"/>
<path d="M2238.97 625.53L2246.06 544.39H2264.79L2282.36 584.71L2288.74 602.63H2289.24C2289.2 598.32 2289.15 593.51 2289.07 588.19C2288.99 582.88 2289.17 577.82 2289.59 573.01L2292.09 544.39H2309.46L2302.37 625.53H2283.64L2266.08 585.08L2259.68 567.41H2259.18C2259.2 571.89 2259.26 576.7 2259.35 581.85C2259.44 587 2259.27 591.97 2258.85 596.78L2256.34 625.53H2238.97Z" fill="#FF741F"/>
<path d="M2357.08 627.02C2351.54 627.02 2346.43 626.13 2341.74 624.34C2337.06 622.56 2333.09 619.92 2329.84 616.44C2326.59 612.96 2324.17 608.62 2322.6 603.44C2321.02 598.26 2320.54 592.26 2321.13 585.46C2321.72 578.74 2323.27 572.75 2325.8 567.48C2328.33 562.21 2331.55 557.75 2335.47 554.1C2339.39 550.45 2343.83 547.67 2348.79 545.76C2353.75 543.85 2358.92 542.9 2364.3 542.9C2370.17 542.9 2375.12 543.98 2379.15 546.14C2383.18 548.3 2386.4 550.75 2388.81 553.48L2378.24 565.18C2376.33 563.36 2374.27 561.82 2372.07 560.58C2369.86 559.34 2367.02 558.71 2363.55 558.71C2360.41 558.71 2357.48 559.31 2354.77 560.51C2352.06 561.71 2349.65 563.43 2347.56 565.68C2345.46 567.92 2343.75 570.66 2342.44 573.89C2341.12 577.13 2340.29 580.78 2339.93 584.84C2339.2 593.22 2340.51 599.71 2343.88 604.32C2347.24 608.92 2352.73 611.23 2360.34 611.23C2361.99 611.23 2363.63 611.02 2365.23 610.61C2366.84 610.2 2368.17 609.57 2369.24 608.74L2370.46 594.8H2357.06L2358.36 579.87H2387.89L2384.63 617.21C2381.58 619.95 2377.65 622.27 2372.86 624.18C2368.06 626.09 2362.81 627.04 2357.1 627.04L2357.08 627.02Z" fill="#FF741F"/>
<path d="M324.92 135.13C219.98 135.13 134.92 220.19 134.92 325.13C134.92 353.6 141.19 380.6 152.41 404.85C155.23 410.94 158.36 416.85 161.79 422.57C170.13 432.3 182.51 438.48 196.34 438.48C205.56 438.48 214.14 435.73 221.31 431.01C226.5 427.59 230.95 423.14 234.37 417.95C239.09 410.78 241.84 402.2 241.84 392.98C241.84 387.15 240.73 381.59 238.74 376.47C237.03 373.57 235.45 370.57 234.03 367.49C228.19 354.79 224.93 340.65 224.93 325.75C224.93 270.52 269.7 225.75 324.93 225.75C380.16 225.75 424.93 270.52 424.93 325.75C424.93 352.2 414.66 376.24 397.9 394.12L261.78 530.55L324.93 593.7L463.58 455.05C495.43 421.08 514.93 375.39 514.93 325.15C514.93 220.21 429.87 135.15 324.93 135.15L324.92 135.13Z" fill="url(#owk-gradient)"/>
<path d="M459.21 523.55L325 657.76L229.7 562.46L229.33 688.54L325 784.36L458.86 650.51L586.34 777.99L586.33 650.54L459.21 523.55Z" fill="white"/>
<path d="M153.52 486.28C113.29 443.37 88.99 385.36 90.04 321.66C92.14 193.69 197.33 90.4401 325.32 90.6101C454.97 90.7801 560.01 195.92 560.01 325.61C560.01 387.76 535.89 444.26 496.49 486.28L491.04 491.73L554.34 555.03L562.16 547.21C616.64 489.1 650 410.95 650 325C650 145.42 504.37 -0.129913 324.76 8.70157e-05C145.46 0.130087 0 145.69 0 325C0 410.95 33.36 489.1 87.84 547.2L102.92 562.28C120.4 579.76 148.74 579.76 166.22 562.28C183.7 544.8 183.7 516.46 166.22 498.98L153.51 486.27L153.52 486.28Z" fill="url(#owk-gradient)"/>
<path d="M2384.92 228.32C2378.97 228.32 2373.35 227.23 2368.05 225.06C2362.75 222.88 2358.15 219.84 2354.23 215.92C2350.31 212 2347.23 207.36 2344.98 201.99C2342.73 196.62 2341.61 190.75 2341.61 184.36C2341.61 177.97 2342.73 172.1 2344.98 166.73C2347.23 161.36 2350.31 156.72 2354.23 152.8C2358.15 148.88 2362.75 145.84 2368.05 143.66C2373.34 141.48 2378.97 140.39 2384.92 140.39C2390.87 140.39 2396.46 141.48 2401.68 143.66C2406.9 145.84 2411.47 148.88 2415.39 152.8C2419.31 156.72 2422.39 161.36 2424.64 166.73C2426.89 172.1 2428.01 177.98 2428.01 184.36C2428.01 190.74 2426.88 196.62 2424.64 201.99C2422.39 207.36 2419.31 212 2415.39 215.92C2411.47 219.84 2406.9 222.88 2401.68 225.06C2396.46 227.24 2390.87 228.32 2384.92 228.32ZM2384.92 217.65C2394.06 217.65 2401.53 214.64 2407.34 208.62C2413.14 202.6 2416.05 194.51 2416.05 184.35C2416.05 174.19 2413.15 166.1 2407.34 160.08C2401.53 154.06 2394.06 151.05 2384.92 151.05C2380.27 151.05 2376.07 151.85 2372.3 153.44C2368.52 155.04 2365.23 157.29 2362.4 160.19C2359.57 163.1 2357.39 166.58 2355.87 170.64C2354.35 174.7 2353.58 179.27 2353.58 184.35C2353.58 189.43 2354.34 194 2355.87 198.06C2357.39 202.12 2359.57 205.61 2362.4 208.51C2365.23 211.41 2368.53 213.66 2372.3 215.26C2376.07 216.86 2380.28 217.65 2384.92 217.65ZM2367.29 205.46V162.58H2386.66C2391.74 162.58 2395.94 163.74 2399.28 166.06C2402.62 168.38 2404.29 172.01 2404.29 176.94C2404.29 182.31 2401.75 186.23 2396.67 188.69L2405.59 205.45H2392.53L2386 192.39H2379.69V205.45H2367.28L2367.29 205.46ZM2379.7 183.7H2384.27C2386.45 183.7 2388.08 183.08 2389.17 181.85C2390.26 180.62 2390.8 179.2 2390.8 177.61C2390.8 176.02 2390.26 174.67 2389.17 173.58C2388.08 172.49 2386.45 171.95 2384.27 171.95H2379.7V183.7Z" fill="white"/>
<path d="M2076.59 414.21L2058.2 464.86L2020.21 406.33C1988.34 402.99 1956.13 401.51 1924.06 401.87L1983.31 493.83L2147.44 493.85L2164.75 434.78C2135.78 426.27 2106.32 419.437 2076.59 414.21Z" fill="white"/>
<path d="M1786.1 415.06L1784.56 458.14L1772.74 417.6C1743.23 423.47 1713.95 431.01 1685.55 440.01L1698.25 493.84L1837.72 493.81L1902.03 402.42C1863.15 403.895 1824.37 408.106 1786.09 415.05L1786.1 415.06Z" fill="white"/>
<path d="M2386.95 493.78L2284.11 141.09H2175.74L2087.13 385.18C2192.88 401.089 2295.51 438.363 2386.95 493.78ZM2229.65 243.39L2265.72 388.81L2191.72 358.81L2229.65 243.39Z" fill="white"/>
<path d="M2000.98 376.71L1961.87 316.45L2088.08 141.07H1982.24L1881.37 284.2L1886.53 141.08H1795.88L1786.82 394.72C1857.03 379.473 1929.19 373.391 2000.98 376.71Z" fill="white"/>
<path d="M1768.38 399.21L1693.12 141.09L1582.73 140.82L1457.73 493.82L1539.41 493.86C1607.5 452.686 1685.84 419.347 1768.38 399.21ZM1638.65 243.39L1667.72 361.81L1589.72 393.81L1638.65 243.39Z" fill="white"/>
<path d="M1530.72 140.81L1430.36 141.1L1370.01 359.81L1321.98 141.11L1278.72 140.81L1208.37 366.37L1158.92 141.11L1067.77 141.12L1154.42 493.87H1245.07L1290.89 348.23L1326.09 493.86L1415.72 493.81L1530.72 140.81Z" fill="white"/>
<path d="M882.38 133.57C770.97 133.57 697.76 214.21 694.81 311.97C691.5 410.74 769.1 501.45 880 501.44C992.42 501.44 1063.54 420.3 1066.41 322.03C1069.21 223.26 992.26 133.56 882.37 133.57H882.38ZM975.64 317.5C973.97 373.94 929.88 413.25 875.69 413.25C821.5 413.25 783.56 373.95 785.74 317.5C787.92 261.06 829.99 221.75 884.17 221.75C938.36 221.75 977.82 261.05 975.64 317.49V317.5Z" fill="white"/>
<defs>
<linearGradient id="owk-gradient" x1="92" y1="558" x2="543" y2="106" gradientUnits="userSpaceOnUse">
<stop stop-color="#FF8827"/>
<stop offset="1" stop-color="#FF741F"/>
</linearGradient>
</defs>
</svg>
