<svg viewBox="0 0 2429 785" xmlns="http://www.w3.org/2000/svg">
<path d="M1577.53 625.91L1584.62 544.77H1602.86L1597.12 610.48H1629.13L1627.78 625.91H1577.53Z" fill="#FF741F"/>
<path d="M1641.8 625.92L1648.89 544.78H1667.13L1660.04 625.92H1641.8Z" fill="#FF741F"/>
<path d="M1693.16 625.92L1675.8 544.78H1695.15L1701.52 582.61C1702.37 587.09 1703.09 591.43 1703.67 595.61C1704.25 599.8 1704.97 604.14 1705.82 608.61H1706.32C1707.87 604.13 1709.32 599.8 1710.68 595.61C1712.04 591.42 1713.49 587.08 1715.04 582.61L1727.9 544.78H1746.51L1715.11 625.92H1693.15H1693.16Z" fill="#FF741F"/>
<path d="M1748.13 625.92L1755.22 544.78H1805.84L1804.49 560.21H1772.11L1770.69 576.51H1798.23L1796.89 591.82H1769.35L1767.72 610.49H1801.34L1799.99 625.92H1748.13Z" fill="#FF741F"/>
<path d="M1856.69 625.92L1862.43 560.21H1840.22L1841.57 544.78H1904.35L1903 560.21H1880.79L1875.05 625.92H1856.69Z" fill="#FF741F"/>
<path d="M1909.91 625.92L1917 544.78H1946.16C1950.46 544.78 1954.46 545.2 1958.15 546.03C1961.84 546.86 1965.01 548.25 1967.65 550.2C1970.29 552.15 1972.3 554.74 1973.67 557.98C1975.04 561.22 1975.52 565.24 1975.1 570.05C1974.58 576.02 1972.85 580.94 1969.9 584.8C1966.96 588.66 1963.21 591.54 1958.66 593.45L1974.19 625.93H1953.72L1940.76 596.68H1930.71L1928.16 625.93H1909.92L1909.91 625.92ZM1931.98 582.12H1941.41C1946.21 582.12 1949.96 581.1 1952.66 579.07C1955.36 577.04 1956.88 574.03 1957.23 570.05C1957.58 566.07 1956.56 563.29 1954.17 561.71C1951.78 560.13 1948.19 559.35 1943.4 559.35H1933.97L1931.98 582.13V582.12Z" fill="#FF741F"/>
<path d="M1974.68 625.93L2007.08 544.79H2029.04L2047.26 625.93H2027.9L2024.62 606.64H1999.93L1993.28 625.93H1974.67H1974.68ZM2007.54 584.86L2004.9 592.33H2022.15L2020.94 584.86C2020.14 580.8 2019.4 576.48 2018.72 571.92C2018.04 567.36 2017.35 562.96 2016.65 558.73H2016.15C2014.78 563.05 2013.38 567.46 2011.95 571.98C2010.52 576.5 2009.05 580.8 2007.54 584.86Z" fill="#FF741F"/>
<path d="M2088.44 627.42C2083.31 627.42 2078.55 626.53 2074.16 624.74C2069.77 622.96 2066 620.32 2062.88 616.84C2059.75 613.36 2057.42 609.02 2055.89 603.84C2054.36 598.66 2053.89 592.66 2054.48 585.86C2055.07 579.14 2056.62 573.15 2059.15 567.88C2061.68 562.61 2064.84 558.15 2068.63 554.5C2072.42 550.85 2076.72 548.07 2081.52 546.16C2086.32 544.25 2091.28 543.3 2096.41 543.3C2101.54 543.3 2106.2 544.36 2110.15 546.47C2114.1 548.59 2117.32 551.05 2119.8 553.87L2109.1 565.57C2107.2 563.66 2105.16 562.11 2102.99 560.9C2100.82 559.7 2098.29 559.1 2095.39 559.1C2092.66 559.1 2090.02 559.7 2087.48 560.9C2084.93 562.1 2082.67 563.82 2080.7 566.07C2078.72 568.31 2077.08 571.05 2075.76 574.28C2074.44 577.52 2073.61 581.17 2073.25 585.23C2072.52 593.61 2073.73 600.1 2076.89 604.71C2080.04 609.31 2084.6 611.62 2090.55 611.62C2093.86 611.62 2096.88 610.89 2099.61 609.44C2102.34 607.99 2104.79 606.19 2106.97 604.03L2115.65 615.48C2108.17 623.44 2099.1 627.43 2088.43 627.43L2088.44 627.42Z" fill="#FF741F"/>
<path d="M2127.03 625.93L2134.12 544.79H2152.36L2149.46 578.02H2149.96L2176.93 544.79H2197.03L2169.76 577.15L2194.41 625.94H2174.43L2157.69 591.72L2147.17 604.16L2145.27 625.94H2127.03V625.93Z" fill="#FF741F"/>
<path d="M2203.21 625.93L2210.3 544.79H2228.54L2221.45 625.93H2203.21Z" fill="#FF741F"/>
<path d="M2240.56 625.93L2247.65 544.79H2266.38L2283.95 585.11L2290.33 603.03H2290.83C2290.79 598.72 2290.74 593.91 2290.66 588.59C2290.58 583.28 2290.76 578.22 2291.18 573.41L2293.68 544.79H2311.05L2303.96 625.93H2285.23L2267.67 585.48L2261.27 567.81H2260.77C2260.79 572.29 2260.85 577.1 2260.94 582.25C2261.03 587.4 2260.86 592.37 2260.44 597.18L2257.93 625.93H2240.56Z" fill="#FF741F"/>
<path d="M2358.67 627.43C2353.13 627.43 2348.02 626.54 2343.33 624.75C2338.65 622.97 2334.68 620.33 2331.43 616.85C2328.18 613.37 2325.76 609.03 2324.19 603.85C2322.61 598.67 2322.13 592.67 2322.72 585.87C2323.31 579.15 2324.86 573.16 2327.39 567.89C2329.92 562.62 2333.14 558.16 2337.06 554.51C2340.98 550.86 2345.42 548.08 2350.38 546.17C2355.34 544.26 2360.51 543.31 2365.89 543.31C2371.76 543.31 2376.72 544.39 2380.74 546.55C2384.77 548.71 2387.99 551.16 2390.4 553.89L2379.83 565.59C2377.92 563.77 2375.86 562.23 2373.66 560.99C2371.45 559.75 2368.61 559.12 2365.14 559.12C2362 559.12 2359.07 559.72 2356.36 560.92C2353.65 562.12 2351.24 563.84 2349.15 566.09C2347.05 568.33 2345.34 571.07 2344.03 574.3C2342.71 577.54 2341.88 581.19 2341.52 585.25C2340.79 593.63 2342.1 600.12 2345.46 604.73C2348.82 609.33 2354.31 611.64 2361.92 611.64C2363.57 611.64 2365.21 611.43 2366.81 611.02C2368.42 610.61 2369.75 609.98 2370.82 609.15L2372.04 595.21H2358.64L2359.94 580.28H2389.47L2386.21 617.62C2383.16 620.36 2379.23 622.68 2374.44 624.59C2369.64 626.5 2364.39 627.45 2358.68 627.45L2358.67 627.43Z" fill="#FF741F"/>
<path d="M324.92 135.13C219.98 135.13 134.92 220.19 134.92 325.13C134.92 353.6 141.19 380.6 152.41 404.85C155.23 410.94 158.36 416.85 161.79 422.57C170.13 432.3 182.51 438.48 196.34 438.48C205.56 438.48 214.14 435.73 221.31 431.01C226.5 427.59 230.95 423.14 234.37 417.95C239.09 410.78 241.84 402.2 241.84 392.98C241.84 387.15 240.73 381.59 238.74 376.47C237.03 373.57 235.45 370.57 234.03 367.49C228.19 354.79 224.93 340.65 224.93 325.75C224.93 270.52 269.7 225.75 324.93 225.75C380.16 225.75 424.93 270.52 424.93 325.75C424.93 352.2 414.66 376.24 397.9 394.12L261.78 530.55L324.93 593.7L463.58 455.05C495.43 421.08 514.93 375.39 514.93 325.15C514.93 220.21 429.87 135.15 324.93 135.15L324.92 135.13Z" fill="url(#owk-gradient)"/>
<path d="M459.21 523.55L325 657.76L229.7 562.46L229.33 688.54L325 784.36L458.86 650.51L586.34 777.99L586.33 650.54L459.21 523.55Z" fill="black"/>
<path d="M153.52 486.28C113.29 443.37 88.99 385.36 90.04 321.66C92.14 193.69 197.33 90.4401 325.32 90.6101C454.97 90.7801 560.01 195.92 560.01 325.61C560.01 387.76 535.89 444.26 496.49 486.28L491.04 491.73L554.34 555.03L562.16 547.21C616.64 489.1 650 410.95 650 325C650 145.42 504.37 -0.129913 324.76 8.70157e-05C145.46 0.130087 0 145.69 0 325C0 410.95 33.36 489.1 87.84 547.2L102.92 562.28C120.4 579.76 148.74 579.76 166.22 562.28C183.7 544.8 183.7 516.46 166.22 498.98L153.51 486.27L153.52 486.28Z" fill="url(#owk-gradient)"/>
<path d="M2385.92 228.32C2379.97 228.32 2374.35 227.23 2369.05 225.06C2363.75 222.88 2359.15 219.84 2355.23 215.92C2351.31 212 2348.23 207.36 2345.98 201.99C2343.73 196.62 2342.61 190.75 2342.61 184.36C2342.61 177.97 2343.73 172.1 2345.98 166.73C2348.23 161.36 2351.31 156.72 2355.23 152.8C2359.15 148.88 2363.75 145.84 2369.05 143.66C2374.34 141.48 2379.97 140.39 2385.92 140.39C2391.87 140.39 2397.46 141.48 2402.68 143.66C2407.9 145.84 2412.47 148.88 2416.39 152.8C2420.31 156.72 2423.39 161.36 2425.64 166.73C2427.89 172.1 2429.01 177.98 2429.01 184.36C2429.01 190.74 2427.88 196.62 2425.64 201.99C2423.39 207.36 2420.31 212 2416.39 215.92C2412.47 219.84 2407.9 222.88 2402.68 225.06C2397.46 227.24 2391.87 228.32 2385.92 228.32ZM2385.92 217.65C2395.06 217.65 2402.53 214.64 2408.34 208.62C2414.14 202.6 2417.05 194.51 2417.05 184.35C2417.05 174.19 2414.15 166.1 2408.34 160.08C2402.53 154.06 2395.06 151.05 2385.92 151.05C2381.27 151.05 2377.07 151.85 2373.3 153.44C2369.52 155.04 2366.23 157.29 2363.4 160.19C2360.57 163.1 2358.39 166.58 2356.87 170.64C2355.35 174.7 2354.58 179.27 2354.58 184.35C2354.58 189.43 2355.34 194 2356.87 198.06C2358.39 202.12 2360.57 205.61 2363.4 208.51C2366.23 211.41 2369.53 213.66 2373.3 215.26C2377.07 216.86 2381.28 217.65 2385.92 217.65ZM2368.29 205.46V162.58H2387.66C2392.74 162.58 2396.94 163.74 2400.28 166.06C2403.62 168.38 2405.29 172.01 2405.29 176.94C2405.29 182.31 2402.75 186.23 2397.67 188.69L2406.59 205.45H2393.53L2387 192.39H2380.69V205.45H2368.28L2368.29 205.46ZM2380.7 183.7H2385.27C2387.45 183.7 2389.08 183.08 2390.17 181.85C2391.26 180.62 2391.8 179.2 2391.8 177.61C2391.8 176.02 2391.26 174.67 2390.17 173.58C2389.08 172.49 2387.45 171.95 2385.27 171.95H2380.7V183.7Z" fill="black"/>
<path d="M2077.59 414.21L2059.2 464.86L2021.21 406.33C1989.34 402.99 1957.13 401.51 1925.06 401.87L1984.31 493.83L2148.44 493.85L2165.75 434.78C2136.78 426.27 2107.32 419.437 2077.59 414.21Z" fill="black"/>
<path d="M1787.1 415.06L1785.56 458.14L1773.74 417.6C1744.23 423.47 1714.95 431.01 1686.55 440.01L1699.25 493.84L1838.72 493.81L1903.03 402.42C1864.15 403.895 1825.37 408.106 1787.09 415.05L1787.1 415.06Z" fill="black"/>
<path d="M2387.95 493.78L2285.11 141.09H2176.74L2088.13 385.18C2193.88 401.089 2296.51 438.363 2387.95 493.78ZM2230.65 243.39L2266.72 388.81L2192.72 358.81L2230.65 243.39Z" fill="black"/>
<path d="M2001.98 376.71L1962.87 316.45L2089.08 141.07H1983.24L1882.37 284.2L1887.53 141.08H1796.88L1787.82 394.72C1858.03 379.473 1930.19 373.391 2001.98 376.71Z" fill="black"/>
<path d="M1769.38 399.21L1694.12 141.09L1583.73 140.82L1458.73 493.82L1540.41 493.86C1608.5 452.686 1686.84 419.347 1769.38 399.21ZM1639.65 243.39L1668.72 361.81L1590.72 393.81L1639.65 243.39Z" fill="black"/>
<path d="M1531.72 140.81L1431.36 141.1L1371.01 359.81L1322.98 141.11L1279.72 140.81L1209.37 366.37L1159.92 141.11L1068.77 141.12L1155.42 493.87H1246.07L1291.89 348.23L1327.09 493.86L1416.72 493.81L1531.72 140.81Z" fill="black"/>
<path d="M883.38 133.57C771.97 133.57 698.76 214.21 695.81 311.97C692.5 410.74 770.1 501.45 881 501.44C993.42 501.44 1064.54 420.3 1067.41 322.03C1070.21 223.26 993.26 133.56 883.37 133.57H883.38ZM976.64 317.5C974.97 373.94 930.88 413.25 876.69 413.25C822.5 413.25 784.56 373.95 786.74 317.5C788.92 261.06 830.99 221.75 885.17 221.75C939.36 221.75 978.82 261.05 976.64 317.49V317.5Z" fill="black"/>
<defs>
<linearGradient id="owk-gradient" x1="92" y1="558" x2="543" y2="106" gradientUnits="userSpaceOnUse">
<stop stop-color="#FF8827"/>
<stop offset="1" stop-color="#FF741F"/>
</linearGradient>
</defs>
</svg>
