<svg viewBox="0 0 1734 1417" xmlns="http://www.w3.org/2000/svg">
<path d="M1191.98 714.35L1001.21 523.55L867 657.76L834.2 624.96L770.9 688.26L867 784.36L1000.86 650.51L1128.34 777.99L1191.98 714.35Z" fill="black"/>
<path d="M1192 325C1192 145.42 1046.37 -0.129913 866.76 8.70157e-05C687.46 0.130087 542 145.69 542 325C542 410.95 575.36 489.1 629.84 547.2L707.42 624.78C724.9 642.26 753.24 642.26 770.72 624.78C788.2 607.3 788.2 578.96 770.72 561.48L695.51 486.27C655.28 443.36 630.98 385.35 632.03 321.65C634.13 193.68 739.32 90.4301 867.31 90.6001C996.96 90.7701 1102 195.91 1102 325.6C1102 387.75 1077.88 444.25 1038.48 486.27L1033.03 491.72L1096.33 555.02L1104.15 547.2C1158.63 489.09 1191.99 410.94 1191.99 324.99L1192 325Z" fill="url(#owk-gradient)"/>
<path d="M867.21 134.92C762.27 134.92 677.21 219.98 677.21 324.92C677.21 353.39 683.48 380.39 694.7 404.64C697.52 410.73 700.65 416.64 704.08 422.36C712.42 432.09 724.8 438.27 738.63 438.27C747.85 438.27 756.43 435.52 763.6 430.8C768.79 427.38 773.24 422.93 776.66 417.74C781.38 410.57 784.13 401.99 784.13 392.77C784.13 386.94 783.02 381.38 781.03 376.26C779.32 373.36 777.74 370.36 776.32 367.28C770.48 354.58 767.22 340.44 767.22 325.54C767.22 270.31 811.99 225.54 867.22 225.54C922.45 225.54 967.22 270.31 967.22 325.54C967.22 351.99 956.95 376.03 940.19 393.91L804.07 530.34L867.22 593.49L1005.87 454.84C1037.72 420.87 1057.22 375.18 1057.22 324.94C1057.22 220 972.16 134.94 867.22 134.94L867.21 134.92Z" fill="url(#owk-gradient)"/>
<path d="M1637.34 1415.16L1644.43 1334.02H1695.05L1693.7 1349.45H1661.32L1659.9 1365.75H1687.44L1686.1 1381.06H1658.56L1656.93 1399.73H1690.55L1689.2 1415.16H1637.34Z" fill="#FF741F"/>
<path d="M1561.29 1415.15L1568.38 1334.01H1597.54C1601.84 1334.01 1605.84 1334.43 1609.53 1335.26C1613.22 1336.09 1616.39 1337.48 1619.03 1339.43C1621.67 1341.38 1623.68 1343.97 1625.05 1347.21C1626.42 1350.45 1626.9 1354.47 1626.48 1359.28C1625.96 1365.25 1624.23 1370.17 1621.28 1374.03C1618.34 1377.89 1614.59 1380.77 1610.04 1382.68L1625.57 1415.16H1605.1L1592.14 1385.91H1582.09L1579.54 1415.16H1561.3L1561.29 1415.15ZM1583.35 1371.35H1592.78C1597.58 1371.35 1601.33 1370.34 1604.03 1368.3C1606.73 1366.27 1608.25 1363.26 1608.6 1359.28C1608.95 1355.3 1607.93 1352.52 1605.54 1350.94C1603.16 1349.36 1599.56 1348.58 1594.77 1348.58H1585.34L1583.35 1371.35Z" fill="#FF741F"/>
<path d="M1510.54 1416.65C1500.04 1416.65 1492.28 1413.54 1487.29 1407.32C1482.29 1401.1 1480.39 1391.18 1481.58 1377.57L1485.38 1334.01H1503.74L1499.77 1379.43C1499.07 1387.39 1499.79 1392.95 1501.91 1396.11C1504.03 1399.26 1507.37 1400.84 1511.92 1400.84C1516.47 1400.84 1520.12 1399.27 1522.88 1396.11C1525.64 1392.96 1527.36 1387.4 1528.06 1379.43L1532.03 1334.01H1549.65L1545.85 1377.57C1544.66 1391.18 1541.09 1401.09 1535.13 1407.31C1529.17 1413.53 1520.98 1416.64 1510.55 1416.64L1510.54 1416.65Z" fill="#FF741F"/>
<path d="M1425.56 1415.15L1431.3 1349.44H1409.09L1410.44 1334.01H1473.22L1471.87 1349.44H1449.66L1443.92 1415.15H1425.56Z" fill="#FF741F"/>
<path d="M1327.29 1415.15L1334.38 1334.01H1353.11L1370.68 1374.33L1377.06 1392.25H1377.56C1377.52 1387.94 1377.47 1383.13 1377.39 1377.81C1377.31 1372.5 1377.49 1367.44 1377.91 1362.63L1380.41 1334.01H1397.78L1390.69 1415.15H1371.96L1354.4 1374.7L1348 1357.03H1347.5C1347.52 1361.51 1347.58 1366.32 1347.67 1371.47C1347.76 1376.62 1347.59 1381.59 1347.17 1386.4L1344.66 1415.15H1327.29Z" fill="#FF741F"/>
<path d="M1259.3 1415.15L1266.39 1334.01H1317.01L1315.66 1349.44H1283.28L1281.86 1365.74H1309.4L1308.06 1381.05H1280.52L1278.89 1399.72H1312.51L1311.16 1415.15H1259.3Z" fill="#FF741F"/>
<path d="M1204.34 1415.14L1186.98 1334H1206.33L1212.7 1371.83C1213.55 1376.31 1214.27 1380.65 1214.85 1384.83C1215.43 1389.02 1216.15 1393.36 1217 1397.83H1217.5C1219.05 1393.35 1220.5 1389.02 1221.86 1384.83C1223.22 1380.64 1224.67 1376.3 1226.22 1371.83L1239.08 1334H1257.69L1226.29 1415.14H1204.33H1204.34Z" fill="#FF741F"/>
<path d="M1112.78 1415.14L1119.87 1334H1142.7C1148.9 1334 1154.42 1334.79 1159.24 1336.37C1164.07 1337.95 1168.11 1340.37 1171.38 1343.65C1174.65 1346.93 1177.01 1351.1 1178.48 1356.16C1179.94 1361.22 1180.37 1367.24 1179.76 1374.21C1179.15 1381.18 1177.67 1387.24 1175.32 1392.38C1172.97 1397.53 1169.91 1401.78 1166.14 1405.14C1162.37 1408.5 1158 1411.01 1153.01 1412.67C1148.03 1414.33 1142.56 1415.16 1136.6 1415.16H1112.78V1415.14ZM1132.31 1400.33H1135.78C1139.25 1400.33 1142.44 1399.87 1145.33 1398.96C1148.22 1398.05 1150.75 1396.58 1152.91 1394.54C1155.07 1392.51 1156.86 1389.83 1158.26 1386.51C1159.67 1383.19 1160.58 1379.09 1161.01 1374.19C1161.43 1369.38 1161.22 1365.33 1160.4 1362.06C1159.57 1358.78 1158.25 1356.17 1156.43 1354.22C1154.62 1352.27 1152.34 1350.88 1149.6 1350.05C1146.86 1349.22 1143.75 1348.8 1140.28 1348.8H1136.81L1132.31 1400.32V1400.33Z" fill="#FF741F"/>
<path d="M1031.39 1415.14L1063.79 1334H1085.75L1103.97 1415.14H1084.62L1081.34 1395.85H1056.65L1050 1415.14H1031.39ZM1064.25 1374.07L1061.61 1381.54H1078.86L1077.65 1374.07C1076.85 1370.01 1076.11 1365.69 1075.43 1361.13C1074.75 1356.57 1074.06 1352.17 1073.36 1347.94H1072.86C1071.49 1352.26 1070.09 1356.67 1068.66 1361.19C1067.23 1365.71 1065.76 1370.01 1064.25 1374.07Z" fill="#FF741F"/>
<path d="M1690.21 1020.75C1684.26 1020.75 1678.64 1019.66 1673.34 1017.49C1668.04 1015.31 1663.44 1012.27 1659.52 1008.35C1655.6 1004.43 1652.52 999.79 1650.27 994.42C1648.02 989.05 1646.9 983.18 1646.9 976.79C1646.9 970.4 1648.02 964.53 1650.27 959.16C1652.52 953.79 1655.6 949.15 1659.52 945.23C1663.44 941.31 1668.04 938.27 1673.34 936.09C1678.63 933.91 1684.26 932.82 1690.21 932.82C1696.16 932.82 1701.75 933.91 1706.97 936.09C1712.19 938.27 1716.76 941.31 1720.68 945.23C1724.6 949.15 1727.68 953.79 1729.93 959.16C1732.18 964.53 1733.3 970.41 1733.3 976.79C1733.3 983.17 1732.17 989.05 1729.93 994.42C1727.68 999.79 1724.6 1004.43 1720.68 1008.35C1716.76 1012.27 1712.19 1015.31 1706.97 1017.49C1701.75 1019.67 1696.16 1020.75 1690.21 1020.75ZM1690.21 1010.08C1699.35 1010.08 1706.82 1007.07 1712.63 1001.05C1718.43 995.03 1721.34 986.94 1721.34 976.78C1721.34 966.62 1718.44 958.53 1712.63 952.51C1706.82 946.49 1699.35 943.48 1690.21 943.48C1685.56 943.48 1681.36 944.28 1677.59 945.87C1673.81 947.47 1670.52 949.72 1667.69 952.62C1664.86 955.53 1662.68 959.01 1661.16 963.07C1659.64 967.13 1658.87 971.7 1658.87 976.78C1658.87 981.86 1659.63 986.43 1661.16 990.49C1662.68 994.55 1664.86 998.04 1667.69 1000.94C1670.52 1003.84 1673.82 1006.09 1677.59 1007.69C1681.36 1009.29 1685.57 1010.08 1690.21 1010.08ZM1672.58 997.89V955.01H1691.95C1697.03 955.01 1701.23 956.17 1704.57 958.49C1707.91 960.81 1709.58 964.44 1709.58 969.37C1709.58 974.74 1707.04 978.66 1701.96 981.12L1710.88 997.88H1697.82L1691.29 984.82H1684.98V997.88H1672.57L1672.58 997.89ZM1684.99 976.13H1689.56C1691.74 976.13 1693.37 975.51 1694.46 974.28C1695.55 973.05 1696.09 971.63 1696.09 970.04C1696.09 968.45 1695.55 967.1 1694.46 966.01C1693.37 964.92 1691.74 964.38 1689.56 964.38H1684.99V976.13Z" fill="black"/>
<path d="M1381.88 1206.64L1363.49 1257.29L1325.5 1198.76C1293.63 1195.42 1261.42 1193.94 1229.35 1194.3L1288.6 1286.26L1452.73 1286.28L1470.04 1227.21C1441.07 1218.7 1411.62 1211.87 1381.88 1206.64Z" fill="black"/>
<path d="M1091.39 1207.49L1089.85 1250.57L1078.03 1210.03C1048.52 1215.9 1019.24 1223.44 990.842 1232.44L1003.54 1286.27L1143.01 1286.24L1207.32 1194.85C1168.44 1196.32 1129.67 1200.54 1091.38 1207.48L1091.39 1207.49Z" fill="black"/>
<path d="M1692.24 1286.21L1589.4 933.52H1481.03L1392.42 1177.61C1498.17 1193.52 1600.8 1230.79 1692.24 1286.21ZM1534.94 1035.82L1571.01 1181.24L1497.01 1151.24L1534.94 1035.82Z" fill="black"/>
<path d="M1306.27 1169.14L1267.16 1108.88L1393.37 933.5H1287.53L1186.66 1076.63L1191.82 933.51H1101.17L1092.11 1187.15C1162.32 1171.9 1234.48 1165.82 1306.27 1169.14Z" fill="black"/>
<path d="M1073.67 1191.64L998.412 933.52L888.022 933.25L763.022 1286.25L844.702 1286.29C912.788 1245.12 991.134 1211.78 1073.67 1191.64ZM943.942 1035.82L973.012 1154.24L895.012 1186.24L943.942 1035.82Z" fill="black"/>
<path d="M836.012 933.24L735.652 933.53L675.302 1152.24L627.272 933.54L584.012 933.24L513.662 1158.8L464.212 933.54L373.062 933.55L459.712 1286.3H550.362L596.182 1140.66L631.382 1286.29L721.012 1286.24L836.012 933.24Z" fill="black"/>
<path d="M187.672 926C76.262 926 3.05197 1006.64 0.101969 1104.4C-3.20803 1203.17 74.392 1293.88 185.292 1293.87C297.712 1293.87 368.832 1212.73 371.702 1114.46C374.502 1015.69 297.552 925.99 187.662 926H187.672ZM280.932 1109.93C279.262 1166.37 235.172 1205.68 180.982 1205.68C126.792 1205.68 88.852 1166.38 91.032 1109.93C93.212 1053.49 135.282 1014.18 189.462 1014.18C243.652 1014.18 283.112 1053.48 280.932 1109.92V1109.93Z" fill="black"/>
<defs>
<linearGradient id="owk-gradient" x1="629" y1="562" x2="1090" y2="101" gradientUnits="userSpaceOnUse">
<stop stop-color="#FF8827"/>
<stop offset="1" stop-color="#FF741F"/>
</linearGradient>
</defs>
</svg>
