<svg viewBox="0 0 2430 785" xmlns="http://www.w3.org/2000/svg">
<path d="M2333.05 623.73L2340.14 542.59H2390.76L2389.41 558.02H2357.03L2355.61 574.32H2383.15L2381.81 589.63H2354.27L2352.64 608.3H2386.26L2384.91 623.73H2333.05Z" fill="#FF741F"/>
<path d="M2257 623.72L2264.09 542.58H2293.25C2297.55 542.58 2301.55 543 2305.24 543.83C2308.93 544.66 2312.1 546.05 2314.74 548C2317.38 549.95 2319.39 552.54 2320.76 555.78C2322.13 559.02 2322.61 563.04 2322.19 567.85C2321.67 573.82 2319.94 578.74 2316.99 582.6C2314.05 586.46 2310.3 589.34 2305.75 591.25L2321.28 623.73H2300.81L2287.85 594.48H2277.8L2275.25 623.73H2257.01L2257 623.72ZM2279.06 579.92H2288.49C2293.29 579.92 2297.04 578.91 2299.74 576.87C2302.44 574.84 2303.96 571.83 2304.31 567.85C2304.66 563.87 2303.64 561.09 2301.25 559.51C2298.87 557.93 2295.27 557.15 2290.48 557.15H2281.05L2279.06 579.92Z" fill="#FF741F"/>
<path d="M2206.25 625.22C2195.75 625.22 2187.99 622.11 2183 615.89C2178 609.67 2176.1 599.75 2177.29 586.14L2181.09 542.58H2199.45L2195.48 588C2194.78 595.96 2195.5 601.52 2197.62 604.68C2199.74 607.83 2203.08 609.41 2207.63 609.41C2212.18 609.41 2215.83 607.84 2218.59 604.68C2221.35 601.53 2223.07 595.97 2223.77 588L2227.74 542.58H2245.36L2241.56 586.14C2240.37 599.75 2236.8 609.66 2230.84 615.88C2224.88 622.1 2216.69 625.21 2206.26 625.21L2206.25 625.22Z" fill="#FF741F"/>
<path d="M2121.27 623.72L2127.01 558.01H2104.8L2106.15 542.58H2168.93L2167.58 558.01H2145.37L2139.63 623.72H2121.27Z" fill="#FF741F"/>
<path d="M2023 623.72L2030.09 542.58H2048.82L2066.39 582.9L2072.77 600.82H2073.27C2073.23 596.51 2073.18 591.7 2073.1 586.38C2073.02 581.07 2073.2 576.01 2073.62 571.2L2076.12 542.58H2093.49L2086.4 623.72H2067.67L2050.11 583.27L2043.71 565.6H2043.21C2043.23 570.08 2043.29 574.89 2043.38 580.04C2043.47 585.19 2043.3 590.16 2042.88 594.97L2040.37 623.72H2023Z" fill="#FF741F"/>
<path d="M1955.01 623.72L1962.1 542.58H2012.72L2011.37 558.01H1978.99L1977.57 574.31H2005.11L2003.77 589.62H1976.23L1974.6 608.29H2008.22L2006.87 623.72H1955.01Z" fill="#FF741F"/>
<path d="M1900.05 623.71L1882.69 542.57H1902.04L1908.41 580.4C1909.26 584.88 1909.98 589.22 1910.56 593.4C1911.14 597.59 1911.86 601.93 1912.71 606.4H1913.21C1914.76 601.92 1916.21 597.59 1917.57 593.4C1918.93 589.21 1920.38 584.87 1921.93 580.4L1934.79 542.57H1953.4L1922 623.71H1900.04H1900.05Z" fill="#FF741F"/>
<path d="M1808.49 623.71L1815.58 542.57H1838.41C1844.61 542.57 1850.13 543.36 1854.95 544.94C1859.78 546.52 1863.82 548.94 1867.09 552.22C1870.36 555.5 1872.72 559.67 1874.19 564.73C1875.65 569.79 1876.08 575.81 1875.47 582.78C1874.86 589.75 1873.38 595.81 1871.03 600.95C1868.68 606.1 1865.62 610.35 1861.85 613.71C1858.08 617.07 1853.71 619.58 1848.72 621.24C1843.74 622.9 1838.27 623.73 1832.31 623.73H1808.49V623.71ZM1828.02 608.9H1831.49C1834.96 608.9 1838.15 608.44 1841.04 607.53C1843.93 606.62 1846.46 605.15 1848.62 603.11C1850.78 601.08 1852.57 598.4 1853.97 595.08C1855.38 591.76 1856.29 587.66 1856.72 582.76C1857.14 577.95 1856.93 573.9 1856.11 570.63C1855.28 567.35 1853.96 564.74 1852.14 562.79C1850.33 560.84 1848.05 559.45 1845.31 558.62C1842.57 557.79 1839.46 557.37 1835.99 557.37H1832.52L1828.02 608.89V608.9Z" fill="#FF741F"/>
<path d="M1727.1 623.71L1759.5 542.57H1781.46L1799.68 623.71H1780.33L1777.05 604.42H1752.36L1745.71 623.71H1727.1ZM1759.96 582.64L1757.32 590.11H1774.57L1773.36 582.64C1772.56 578.58 1771.82 574.26 1771.14 569.7C1770.46 565.14 1769.77 560.74 1769.07 556.51H1768.57C1767.2 560.83 1765.8 565.24 1764.37 569.76C1762.94 574.28 1761.47 578.58 1759.96 582.64Z" fill="#FF741F"/>
<path d="M649.98 714.35L459.21 523.55L325 657.76L292.2 624.96L228.9 688.26L325 784.36L458.86 650.51L586.34 777.99L649.98 714.35Z" fill="white"/>
<path d="M650 325C650 145.42 504.37 -0.129913 324.76 8.70157e-05C145.46 0.130087 0 145.69 0 325C0 410.95 33.36 489.1 87.84 547.2L165.42 624.78C182.9 642.26 211.24 642.26 228.72 624.78C246.2 607.3 246.2 578.96 228.72 561.48L153.51 486.27C113.28 443.36 88.98 385.35 90.03 321.65C92.13 193.68 197.32 90.4301 325.31 90.6001C454.96 90.7701 560 195.91 560 325.6C560 387.75 535.88 444.25 496.48 486.27L491.03 491.72L554.33 555.02L562.15 547.2C616.63 489.09 649.99 410.94 649.99 324.99L650 325Z" fill="url(#owk-gradient)"/>
<path d="M325.21 134.92C220.27 134.92 135.21 219.98 135.21 324.92C135.21 353.39 141.48 380.39 152.7 404.64C155.52 410.73 158.65 416.64 162.08 422.36C170.42 432.09 182.8 438.27 196.63 438.27C205.85 438.27 214.43 435.52 221.6 430.8C226.79 427.38 231.24 422.93 234.66 417.74C239.38 410.57 242.13 401.99 242.13 392.77C242.13 386.94 241.02 381.38 239.03 376.26C237.32 373.36 235.74 370.36 234.32 367.28C228.48 354.58 225.22 340.44 225.22 325.54C225.22 270.31 269.99 225.54 325.22 225.54C380.45 225.54 425.22 270.31 425.22 325.54C425.22 351.99 414.95 376.03 398.19 393.91L262.07 530.34L325.22 593.49L463.87 454.84C495.72 420.87 515.22 375.18 515.22 324.94C515.22 220 430.16 134.94 325.22 134.94L325.21 134.92Z" fill="url(#owk-gradient)"/>
<path d="M2385.92 229.32C2379.97 229.32 2374.35 228.23 2369.05 226.06C2363.75 223.88 2359.15 220.84 2355.23 216.92C2351.31 213 2348.23 208.36 2345.98 202.99C2343.73 197.62 2342.61 191.75 2342.61 185.36C2342.61 178.97 2343.73 173.1 2345.98 167.73C2348.23 162.36 2351.31 157.72 2355.23 153.8C2359.15 149.88 2363.75 146.84 2369.05 144.66C2374.34 142.48 2379.97 141.39 2385.92 141.39C2391.87 141.39 2397.46 142.48 2402.68 144.66C2407.9 146.84 2412.47 149.88 2416.39 153.8C2420.31 157.72 2423.39 162.36 2425.64 167.73C2427.89 173.1 2429.01 178.98 2429.01 185.36C2429.01 191.74 2427.88 197.62 2425.64 202.99C2423.39 208.36 2420.31 213 2416.39 216.92C2412.47 220.84 2407.9 223.88 2402.68 226.06C2397.46 228.24 2391.87 229.32 2385.92 229.32ZM2385.92 218.65C2395.06 218.65 2402.53 215.64 2408.34 209.62C2414.14 203.6 2417.05 195.51 2417.05 185.35C2417.05 175.19 2414.15 167.1 2408.34 161.08C2402.53 155.06 2395.06 152.05 2385.92 152.05C2381.27 152.05 2377.07 152.85 2373.3 154.44C2369.52 156.04 2366.23 158.29 2363.4 161.19C2360.57 164.1 2358.39 167.58 2356.87 171.64C2355.35 175.7 2354.58 180.27 2354.58 185.35C2354.58 190.43 2355.34 195 2356.87 199.06C2358.39 203.12 2360.57 206.61 2363.4 209.51C2366.23 212.41 2369.53 214.66 2373.3 216.26C2377.07 217.86 2381.28 218.65 2385.92 218.65ZM2368.29 206.46V163.58H2387.66C2392.74 163.58 2396.94 164.74 2400.28 167.06C2403.62 169.38 2405.29 173.01 2405.29 177.94C2405.29 183.31 2402.75 187.23 2397.67 189.69L2406.59 206.45H2393.53L2387 193.39H2380.69V206.45H2368.28L2368.29 206.46ZM2380.7 184.7H2385.27C2387.45 184.7 2389.08 184.08 2390.17 182.85C2391.26 181.62 2391.8 180.2 2391.8 178.61C2391.8 177.02 2391.26 175.67 2390.17 174.58C2389.08 173.49 2387.45 172.95 2385.27 172.95H2380.7V184.7Z" fill="white"/>
<path d="M2077.59 415.21L2059.2 465.86L2021.21 407.33C1989.34 403.99 1957.13 402.51 1925.06 402.87L1984.31 494.83L2148.44 494.85L2165.75 435.78C2136.78 427.27 2107.32 420.437 2077.59 415.21Z" fill="white"/>
<path d="M1787.1 416.06L1785.56 459.14L1773.74 418.6C1744.23 424.47 1714.95 432.01 1686.55 441.01L1699.25 494.84L1838.72 494.81L1903.03 403.42C1864.15 404.895 1825.37 409.106 1787.09 416.05L1787.1 416.06Z" fill="white"/>
<path d="M2387.95 494.78L2285.11 142.09H2176.74L2088.13 386.18C2193.88 402.089 2296.51 439.363 2387.95 494.78ZM2230.65 244.39L2266.72 389.81L2192.72 359.81L2230.65 244.39Z" fill="white"/>
<path d="M2001.98 377.71L1962.87 317.45L2089.08 142.07H1983.24L1882.37 285.2L1887.53 142.08H1796.88L1787.82 395.72C1858.03 380.473 1930.19 374.391 2001.98 377.71Z" fill="white"/>
<path d="M1769.38 400.21L1694.12 142.09L1583.73 141.82L1458.73 494.82L1540.41 494.86C1608.5 453.686 1686.84 420.347 1769.38 400.21ZM1639.65 244.39L1668.72 362.81L1590.72 394.81L1639.65 244.39Z" fill="white"/>
<path d="M1531.72 141.81L1431.36 142.1L1371.01 360.81L1322.98 142.11L1279.72 141.81L1209.37 367.37L1159.92 142.11L1068.77 142.12L1155.42 494.87H1246.07L1291.89 349.23L1327.09 494.86L1416.72 494.81L1531.72 141.81Z" fill="white"/>
<path d="M883.38 134.57C771.97 134.57 698.76 215.21 695.81 312.97C692.5 411.74 770.1 502.45 881 502.44C993.42 502.44 1064.54 421.3 1067.41 323.03C1070.21 224.26 993.26 134.56 883.37 134.57H883.38ZM976.64 318.5C974.97 374.94 930.88 414.25 876.69 414.25C822.5 414.25 784.56 374.95 786.74 318.5C788.92 262.06 830.99 222.75 885.17 222.75C939.36 222.75 978.82 262.05 976.64 318.49V318.5Z" fill="white"/>
<defs>
<linearGradient id="owk-gradient" x1="92" y1="558" x2="543" y2="106" gradientUnits="userSpaceOnUse">
<stop stop-color="#FF8827"/>
<stop offset="1" stop-color="#FF741F"/>
</linearGradient>
</defs>
</svg>
