<svg viewBox="0 0 1791 1470" xmlns="http://www.w3.org/2000/svg">
<path d="M977.631 1467.9L984.721 1386.76H1002.96L997.221 1452.47H1029.23L1027.88 1467.9H977.631Z" fill="white"/>
<path d="M1041.89 1467.9L1048.98 1386.76H1067.22L1060.13 1467.9H1041.89Z" fill="white"/>
<path d="M1093.26 1467.91L1075.9 1386.77H1095.25L1101.62 1424.6C1102.47 1429.08 1103.19 1433.42 1103.77 1437.6C1104.35 1441.79 1105.07 1446.13 1105.92 1450.6H1106.42C1107.97 1446.12 1109.42 1441.79 1110.78 1437.6C1112.14 1433.41 1113.59 1429.07 1115.14 1424.6L1128 1386.77H1146.61L1115.21 1467.91H1093.25H1093.26Z" fill="white"/>
<path d="M1148.22 1467.91L1155.31 1386.77H1205.93L1204.58 1402.2H1172.2L1170.78 1418.5H1198.32L1196.98 1433.81H1169.44L1167.81 1452.48H1201.43L1200.08 1467.91H1148.22Z" fill="white"/>
<path d="M1256.78 1467.91L1262.52 1402.2H1240.31L1241.66 1386.77H1304.44L1303.09 1402.2H1280.88L1275.14 1467.91H1256.78Z" fill="white"/>
<path d="M1310.01 1467.91L1317.1 1386.77H1346.26C1350.56 1386.77 1354.56 1387.19 1358.25 1388.02C1361.94 1388.85 1365.11 1390.24 1367.75 1392.19C1370.39 1394.14 1372.4 1396.73 1373.77 1399.97C1375.14 1403.21 1375.62 1407.23 1375.2 1412.04C1374.68 1418.01 1372.95 1422.93 1370 1426.79C1367.06 1430.65 1363.31 1433.53 1358.76 1435.44L1374.29 1467.92H1353.82L1340.86 1438.67H1330.81L1328.26 1467.92H1310.02L1310.01 1467.91ZM1332.07 1424.11H1341.5C1346.3 1424.11 1350.05 1423.1 1352.75 1421.06C1355.45 1419.03 1356.97 1416.02 1357.32 1412.04C1357.67 1408.06 1356.65 1405.28 1354.26 1403.7C1351.87 1402.12 1348.28 1401.34 1343.49 1401.33H1334.06L1332.07 1424.11Z" fill="white"/>
<path d="M1374.77 1467.91L1407.17 1386.77H1429.13L1447.35 1467.91H1427.99L1424.71 1448.62H1400.02L1393.37 1467.91H1374.76H1374.77ZM1407.64 1426.85L1405 1434.32H1422.25L1421.04 1426.85C1420.24 1422.79 1419.5 1418.47 1418.82 1413.91C1418.14 1409.35 1417.45 1404.95 1416.75 1400.72H1416.25C1414.88 1405.04 1413.48 1409.45 1412.05 1413.97C1410.62 1418.49 1409.15 1422.79 1407.64 1426.85Z" fill="white"/>
<path d="M1488.54 1469.41C1483.41 1469.41 1478.65 1468.52 1474.26 1466.74C1469.87 1464.96 1466.1 1462.32 1462.98 1458.84C1459.85 1455.36 1457.52 1451.02 1455.99 1445.84C1454.46 1440.66 1453.99 1434.66 1454.58 1427.86C1455.17 1421.14 1456.72 1415.15 1459.25 1409.88C1461.78 1404.61 1464.94 1400.15 1468.73 1396.5C1472.52 1392.85 1476.82 1390.07 1481.62 1388.16C1486.42 1386.25 1491.38 1385.3 1496.51 1385.3C1501.64 1385.3 1506.3 1386.36 1510.25 1388.47C1514.2 1390.59 1517.42 1393.06 1519.9 1395.88L1509.2 1407.58C1507.3 1405.67 1505.26 1404.12 1503.09 1402.91C1500.92 1401.71 1498.39 1401.11 1495.49 1401.11C1492.76 1401.11 1490.12 1401.71 1487.58 1402.91C1485.03 1404.11 1482.77 1405.83 1480.8 1408.08C1478.83 1410.32 1477.18 1413.06 1475.86 1416.29C1474.54 1419.53 1473.71 1423.18 1473.35 1427.24C1472.62 1435.62 1473.83 1442.11 1476.98 1446.72C1480.13 1451.32 1484.69 1453.63 1490.65 1453.63C1493.96 1453.63 1496.98 1452.9 1499.71 1451.45C1502.44 1450 1504.89 1448.2 1507.07 1446.04L1515.75 1457.49C1508.27 1465.45 1499.2 1469.44 1488.53 1469.44L1488.54 1469.41Z" fill="white"/>
<path d="M1527.13 1467.92L1534.22 1386.78H1552.46L1549.56 1420.01H1550.06L1577.03 1386.78H1597.13L1569.86 1419.14L1594.51 1467.93H1574.53L1557.79 1433.71L1547.27 1446.16L1545.37 1467.94H1527.13V1467.92Z" fill="white"/>
<path d="M1603.31 1467.92L1610.4 1386.78H1628.64L1621.55 1467.92H1603.31Z" fill="white"/>
<path d="M1640.65 1467.92L1647.74 1386.78H1666.47L1684.04 1427.1L1690.42 1445.02H1690.92C1690.88 1440.71 1690.83 1435.9 1690.75 1430.58C1690.67 1425.27 1690.85 1420.21 1691.27 1415.4L1693.77 1386.78H1711.14L1704.05 1467.92H1685.32L1667.76 1427.47L1661.36 1409.8H1660.86C1660.88 1414.28 1660.94 1419.09 1661.03 1424.24C1661.12 1429.39 1660.95 1434.36 1660.53 1439.17L1658.02 1467.92H1640.65Z" fill="white"/>
<path d="M1758.76 1469.42C1753.22 1469.42 1748.11 1468.53 1743.42 1466.75C1738.74 1464.97 1734.77 1462.33 1731.52 1458.85C1728.27 1455.37 1725.85 1451.03 1724.28 1445.85C1722.7 1440.67 1722.22 1434.67 1722.81 1427.87C1723.4 1421.15 1724.95 1415.16 1727.48 1409.89C1730.01 1404.62 1733.23 1400.16 1737.15 1396.51C1741.07 1392.86 1745.51 1390.08 1750.47 1388.17C1755.43 1386.26 1760.6 1385.31 1765.98 1385.31C1771.85 1385.31 1776.8 1386.39 1780.83 1388.55C1784.86 1390.71 1788.08 1393.15 1790.49 1395.89L1779.91 1407.59C1778 1405.77 1775.94 1404.23 1773.74 1402.99C1771.53 1401.75 1768.69 1401.12 1765.22 1401.12C1762.08 1401.12 1759.15 1401.72 1756.44 1402.92C1753.73 1404.12 1751.32 1405.84 1749.23 1408.09C1747.13 1410.33 1745.42 1413.07 1744.11 1416.3C1742.79 1419.54 1741.96 1423.19 1741.6 1427.25C1740.87 1435.63 1742.18 1442.12 1745.54 1446.73C1748.9 1451.33 1754.39 1453.64 1762 1453.64C1763.65 1453.64 1765.28 1453.43 1766.89 1453.02C1768.5 1452.61 1769.83 1451.98 1770.9 1451.15L1772.12 1437.21H1758.72L1760.02 1422.28H1789.55L1786.29 1459.62C1783.24 1462.36 1779.31 1464.68 1774.52 1466.59C1769.72 1468.5 1764.47 1469.45 1758.76 1469.45V1469.42Z" fill="white"/>
<path d="M227.291 1373.87L227.281 1373.88C171.086 1373.88 118.666 1354.43 77.6739 1318.75C118.668 1354.43 171.093 1373.87 227.291 1373.87Z" fill="white"/>
<path d="M63.6109 1305.4C106.311 1349.56 164.441 1373.87 227.291 1373.87L227.281 1373.88C260.021 1373.88 290.961 1368.06 319.231 1356.58C346.641 1345.45 370.941 1329.29 391.441 1308.55C411.503 1288.25 427.253 1264.16 438.149 1237.58L469.771 1366.3L624.161 1366.29L633.861 1335.46L641.311 1366.29L897.381 1366.28C909.152 1359.15 920.944 1352.07 932.981 1345.39C954.521 1333.45 976.801 1322.47 999.591 1312.57L1012.26 1366.27L1206.79 1366.23L1259.37 1291.52L1307.73 1366.26L1525.14 1366.28L1550.82 1285.24L1710.81 1366.24L1790.2 1366.16L1662.88 929.52L1307.74 929.5L1275.71 974.94L1277.35 929.51H1102.63L1099.16 1026.51L1070.88 929.52L746.661 929.53L722.931 1015.53L704.091 929.76L596.171 929.03L563.711 1033.09L540.981 929.54L362.481 929.55L372.98 972.291C333.087 939.694 283.077 922 229.661 922C165.901 922 107.641 944.99 65.6109 986.74C25.1809 1026.9 1.92086 1081.71 0.120861 1141.07C-1.88914 1201.71 21.2509 1261.6 63.6109 1305.4ZM174.991 1149.55C176.261 1116.43 198.951 1094.18 231.451 1094.18V1094.17C246.701 1094.17 259.431 1099.03 268.281 1108.22C277.171 1117.47 281.561 1130.63 280.941 1146.29V1146.67C279.981 1179.05 256.141 1201.67 222.971 1201.67C208.221 1201.67 195.981 1197.05 187.571 1188.31C178.721 1179.11 174.371 1165.71 174.991 1149.55ZM1469.43 996.07L1394.79 1201.66L1360.02 1148.1L1469.43 996.07Z" fill="white"/>
<path d="M1743.83 1018.52C1737.88 1018.52 1732.26 1017.43 1726.96 1015.26C1721.66 1013.08 1717.06 1010.04 1713.14 1006.12C1709.22 1002.2 1706.14 997.56 1703.89 992.19C1701.64 986.82 1700.52 980.95 1700.52 974.56C1700.52 968.17 1701.64 962.3 1703.89 956.93C1706.14 951.56 1709.22 946.92 1713.14 943C1717.06 939.08 1721.66 936.04 1726.96 933.86C1732.25 931.68 1737.88 930.59 1743.83 930.59C1749.78 930.59 1755.37 931.68 1760.59 933.86C1765.81 936.04 1770.38 939.08 1774.3 943C1778.22 946.92 1781.3 951.56 1783.55 956.93C1785.8 962.3 1786.92 968.18 1786.92 974.56C1786.92 980.94 1785.79 986.82 1783.55 992.19C1781.3 997.56 1778.22 1002.2 1774.3 1006.12C1770.38 1010.04 1765.81 1013.08 1760.59 1015.26C1755.37 1017.44 1749.78 1018.52 1743.83 1018.52ZM1743.83 1007.85C1752.97 1007.85 1760.44 1004.84 1766.25 998.82C1772.05 992.8 1774.96 984.71 1774.96 974.55C1774.96 964.39 1772.06 956.3 1766.25 950.28C1760.44 944.26 1752.97 941.25 1743.83 941.25C1739.18 941.25 1734.98 942.05 1731.21 943.64C1727.43 945.24 1724.14 947.49 1721.31 950.39C1718.48 953.3 1716.3 956.78 1714.78 960.84C1713.26 964.9 1712.49 969.47 1712.49 974.55C1712.49 979.63 1713.25 984.2 1714.78 988.26C1716.3 992.32 1718.48 995.81 1721.31 998.71C1724.14 1001.61 1727.44 1003.86 1731.21 1005.46C1734.98 1007.06 1739.19 1007.85 1743.83 1007.85ZM1726.2 995.66V952.78H1745.57C1750.65 952.78 1754.85 953.94 1758.19 956.26C1761.53 958.58 1763.2 962.21 1763.2 967.14C1763.2 972.51 1760.66 976.43 1755.58 978.89L1764.5 995.65H1751.44L1744.91 982.59H1738.6V995.65H1726.19L1726.2 995.66ZM1738.61 973.9H1743.18C1745.36 973.9 1746.99 973.28 1748.08 972.05C1749.17 970.82 1749.71 969.4 1749.71 967.81C1749.71 966.22 1749.17 964.87 1748.08 963.78C1746.99 962.69 1745.36 962.15 1743.18 962.15H1738.61V973.9Z" fill="white"/>
<path d="M1424.11 1247.8L1405.72 1298.45L1367.73 1239.92C1335.86 1236.58 1303.65 1235.1 1271.58 1235.46L1330.83 1327.42L1494.96 1327.44L1512.27 1268.37C1483.3 1259.86 1453.85 1253.03 1424.11 1247.8Z" fill="black"/>
<path d="M1133.62 1248.65L1132.08 1291.73L1120.26 1251.19C1090.75 1257.06 1061.47 1264.6 1033.07 1273.6L1045.77 1327.43L1185.24 1327.4L1249.55 1236.01C1210.67 1237.49 1171.9 1241.7 1133.61 1248.64L1133.62 1248.65Z" fill="black"/>
<path d="M1734.47 1327.37L1631.63 974.68H1523.26L1434.65 1218.77C1540.4 1234.68 1643.03 1271.95 1734.47 1327.37ZM1577.17 1076.98L1613.24 1222.4L1539.24 1192.4L1577.17 1076.98Z" fill="black"/>
<path d="M1348.5 1210.3L1309.39 1150.04L1435.6 974.66H1329.76L1228.89 1117.79L1234.05 974.67H1143.4L1134.34 1228.31C1204.55 1213.06 1276.71 1206.98 1348.5 1210.3Z" fill="black"/>
<path d="M1115.9 1232.8L1040.64 974.68L930.251 974.41L805.251 1327.41L886.931 1327.45C955.017 1286.28 1033.36 1252.94 1115.9 1232.8ZM986.171 1076.98L1015.24 1195.4L937.241 1227.4L986.171 1076.98Z" fill="black"/>
<path d="M878.241 974.4L777.881 974.69L717.531 1193.4L669.501 974.7L626.241 974.4L555.891 1199.96L506.441 974.7L415.291 974.71L501.941 1327.46H592.591L638.411 1181.82L673.611 1327.45L763.241 1327.4L878.241 974.4Z" fill="black"/>
<path d="M229.901 967.16C118.491 967.16 45.281 1047.8 42.331 1145.56C39.021 1244.33 116.621 1335.04 227.521 1335.03C339.941 1335.03 411.061 1253.89 413.931 1155.62C416.731 1056.85 339.781 967.15 229.891 967.16H229.901ZM323.161 1151.09C321.491 1207.53 277.401 1246.84 223.211 1246.84C169.021 1246.84 131.081 1207.54 133.261 1151.09C135.441 1094.65 177.511 1055.34 231.691 1055.34C285.881 1055.34 325.341 1094.64 323.161 1151.08V1151.09Z" fill="black"/>
<path d="M909.92 887.94L1046.66 751.2L1183.4 887.94H1210.68L1210.67 674.62L1166.93 630.926L1178.39 619.47C1240.06 553.68 1277.83 465.22 1277.83 367.92H1277.84C1277.84 164.72 1113.12 0 909.92 0C706.72 0 542 164.72 542 367.92C542 465.21 579.77 553.68 641.44 619.46L909.92 887.94Z" fill="white"/>
<path d="M909.26 175.78C804.32 175.78 719.26 260.84 719.26 365.78C719.26 394.25 725.53 421.25 736.75 445.5C739.57 451.59 742.7 457.5 746.13 463.22C754.47 472.95 766.85 479.13 780.68 479.13C789.9 479.13 798.48 476.38 805.65 471.66C810.84 468.24 815.29 463.79 818.71 458.6C823.43 451.43 826.18 442.85 826.18 433.63C826.18 427.8 825.07 422.24 823.08 417.12C821.37 414.22 819.79 411.22 818.37 408.14C812.53 395.44 809.27 381.3 809.27 366.4C809.27 311.17 854.04 266.4 909.27 266.4C964.5 266.4 1009.27 311.17 1009.27 366.4C1009.27 392.85 999 416.89 982.24 434.77L846.12 571.2L909.27 634.35L1047.92 495.7C1079.77 461.73 1099.27 416.04 1099.27 365.8C1099.27 260.86 1014.21 175.8 909.27 175.8L909.26 175.78Z" fill="url(#owk-gradient)"/>
<path d="M1043.55 564.2L909.34 698.42L814.03 603.11L813.67 729.2L909.34 825.02L1043.19 691.16L1170.68 818.65L1170.67 691.2L1043.55 564.2Z" fill="black"/>
<path d="M1043.55 564.2L909.34 698.42L814.03 603.11L813.67 729.2L909.34 825.02L1043.19 691.16L1170.68 818.65L1170.67 691.2L1043.55 564.2Z" fill="black"/>
<path d="M737.85 526.93C697.62 484.02 673.32 426.01 674.37 362.31C676.47 234.34 781.66 131.09 909.65 131.26C1039.3 131.43 1144.34 236.57 1144.34 366.26C1144.34 428.41 1120.22 484.91 1080.82 526.93L1075.37 532.38L1138.67 595.68L1146.49 587.86C1200.97 529.75 1234.33 451.6 1234.33 365.65C1234.33 186.07 1088.7 40.52 909.09 40.65C729.78 40.78 584.33 186.34 584.33 365.65C584.33 451.6 617.69 529.75 672.17 587.85L687.25 602.93C704.73 620.41 733.07 620.41 750.55 602.93C768.03 585.45 768.03 557.11 750.55 539.63L737.84 526.92L737.85 526.93Z" fill="url(#owk-gradient)"/>
<defs>
<linearGradient id="owk-gradient" x1="629" y1="562" x2="1090" y2="101" gradientUnits="userSpaceOnUse">
<stop stop-color="#FF8827"/>
<stop offset="1" stop-color="#FF741F"/>
</linearGradient>
</defs>
</svg>
