<svg viewBox="0 0 2487 888" xmlns="http://www.w3.org/2000/svg">
<path d="M923.77 582.28L923.76 582.29C867.565 582.288 815.145 562.843 774.153 527.159C815.147 562.843 867.572 582.28 923.77 582.28Z" fill="white"/>
<path d="M760.09 513.81C802.79 557.97 860.92 582.28 923.77 582.28L923.76 582.29C956.5 582.29 987.44 576.47 1015.71 564.99C1043.12 553.86 1067.42 537.7 1087.92 516.96C1107.98 496.665 1123.73 472.571 1134.63 445.985L1166.25 574.71L1320.64 574.7L1330.34 543.87L1337.79 574.7L1593.86 574.69C1605.63 567.559 1617.42 560.479 1629.46 553.8C1651 541.86 1673.28 530.88 1696.07 520.98L1708.74 574.68L1903.27 574.64L1955.85 499.93L2004.21 574.67L2221.62 574.69L2247.3 493.654L2407.29 574.65L2486.68 574.57L2359.36 137.93L2004.22 137.91L1972.19 183.35L1973.83 137.92H1799.11L1795.64 234.92L1767.36 137.93L1443.14 137.94L1419.41 223.94L1400.57 138.17L1292.65 137.44L1260.19 241.5L1237.46 137.95L1058.96 137.96L1069.46 180.701C1029.57 148.104 979.556 130.41 926.14 130.41C862.38 130.41 804.12 153.4 762.09 195.15C721.66 235.31 698.4 290.12 696.6 349.48C694.59 410.12 717.73 470.01 760.09 513.81ZM871.47 357.96C872.74 324.84 895.43 302.59 927.93 302.59V302.58C943.18 302.58 955.91 307.44 964.76 316.63C973.65 325.88 978.04 339.04 977.42 354.7V355.08C976.46 387.46 952.62 410.08 919.45 410.08C904.7 410.08 892.46 405.46 884.05 396.72C875.2 387.52 870.85 374.12 871.47 357.96ZM2165.91 204.48L2091.27 410.07L2056.5 356.51L2165.91 204.48Z" fill="white"/>
<path d="M735.83 367.92C735.83 465.22 698.06 553.68 636.39 619.47L626.693 629.167L752.44 754.94L629.41 877.97L503.645 752.215L367.92 887.94L99.44 619.46C37.77 553.68 0 465.21 0 367.92C0 164.72 164.72 0 367.92 0C571.12 0 735.84 164.72 735.84 367.92H735.83Z" fill="white"/>
<path d="M2424.95 676.16L2432.04 595.02H2482.66L2481.31 610.45H2448.93L2447.51 626.75H2475.05L2473.71 642.06H2446.17L2444.54 660.73H2478.16L2476.81 676.16H2424.95Z" fill="white"/>
<path d="M2348.9 676.15L2355.99 595.01H2385.15C2389.45 595.01 2393.45 595.43 2397.14 596.26C2400.83 597.09 2404 598.48 2406.64 600.43C2409.28 602.38 2411.29 604.97 2412.66 608.21C2414.03 611.45 2414.51 615.47 2414.09 620.28C2413.57 626.25 2411.84 631.17 2408.89 635.03C2405.95 638.89 2402.2 641.77 2397.65 643.68L2413.18 676.16H2392.71L2379.75 646.91H2369.7L2367.15 676.16H2348.91L2348.9 676.15ZM2370.96 632.35H2380.39C2385.19 632.35 2388.94 631.34 2391.64 629.3C2394.34 627.27 2395.86 624.26 2396.21 620.28C2396.56 616.3 2395.54 613.52 2393.15 611.94C2390.77 610.36 2387.17 609.58 2382.38 609.58H2372.95L2370.96 632.35Z" fill="white"/>
<path d="M2298.15 677.65C2287.65 677.65 2279.89 674.54 2274.9 668.32C2269.9 662.1 2268 652.18 2269.19 638.57L2272.99 595.01H2291.35L2287.38 640.43C2286.68 648.39 2287.4 653.95 2289.52 657.11C2291.64 660.26 2294.98 661.84 2299.53 661.84C2304.08 661.84 2307.73 660.27 2310.49 657.11C2313.25 653.96 2314.97 648.4 2315.67 640.43L2319.64 595.01H2337.26L2333.46 638.57C2332.27 652.18 2328.7 662.09 2322.74 668.31C2316.78 674.53 2308.59 677.64 2298.16 677.64L2298.15 677.65Z" fill="white"/>
<path d="M2213.17 676.15L2218.91 610.44H2196.7L2198.05 595.01H2260.83L2259.48 610.44H2237.27L2231.53 676.15H2213.17Z" fill="white"/>
<path d="M2114.9 676.15L2121.99 595.01H2140.72L2158.29 635.33L2164.67 653.25H2165.17C2165.13 648.94 2165.08 644.13 2165 638.81C2164.92 633.5 2165.1 628.44 2165.52 623.63L2168.02 595.01H2185.39L2178.3 676.15H2159.57L2142.01 635.7L2135.61 618.03H2135.11C2135.13 622.51 2135.19 627.32 2135.28 632.47C2135.37 637.62 2135.2 642.59 2134.78 647.4L2132.27 676.15H2114.9Z" fill="white"/>
<path d="M2046.91 676.15L2054 595.01H2104.62L2103.27 610.44H2070.89L2069.47 626.74H2097.01L2095.67 642.05H2068.13L2066.5 660.72H2100.12L2098.77 676.15H2046.91Z" fill="white"/>
<path d="M1991.95 676.14L1974.59 595H1993.94L2000.31 632.83C2001.16 637.31 2001.88 641.65 2002.46 645.83C2003.04 650.02 2003.76 654.36 2004.61 658.83H2005.11C2006.66 654.35 2008.11 650.02 2009.47 645.83C2010.83 641.64 2012.28 637.3 2013.83 632.83L2026.69 595H2045.3L2013.9 676.14H1991.94H1991.95Z" fill="white"/>
<path d="M1900.39 676.14L1907.48 595H1930.31C1936.51 595 1942.03 595.79 1946.85 597.37C1951.68 598.95 1955.72 601.37 1958.99 604.65C1962.26 607.93 1964.62 612.1 1966.09 617.16C1967.55 622.22 1967.98 628.24 1967.37 635.21C1966.76 642.18 1965.28 648.24 1962.93 653.38C1960.58 658.53 1957.52 662.78 1953.75 666.14C1949.98 669.5 1945.61 672.01 1940.62 673.67C1935.64 675.33 1930.17 676.16 1924.21 676.16H1900.39V676.14ZM1919.92 661.33H1923.39C1926.86 661.33 1930.05 660.87 1932.94 659.96C1935.83 659.05 1938.36 657.58 1940.52 655.54C1942.68 653.51 1944.47 650.83 1945.87 647.51C1947.28 644.19 1948.19 640.09 1948.62 635.19C1949.04 630.38 1948.83 626.33 1948.01 623.06C1947.18 619.78 1945.86 617.17 1944.04 615.22C1942.23 613.27 1939.95 611.88 1937.21 611.05C1934.47 610.22 1931.36 609.8 1927.89 609.8H1924.42L1919.92 661.32V661.33Z" fill="white"/>
<path d="M1819 676.14L1851.4 595H1873.36L1891.58 676.14H1872.23L1868.95 656.85H1844.26L1837.61 676.14H1819ZM1851.86 635.07L1849.22 642.54H1866.47L1865.26 635.07C1864.46 631.01 1863.72 626.69 1863.04 622.13C1862.36 617.57 1861.67 613.17 1860.97 608.94H1860.47C1859.1 613.26 1857.7 617.67 1856.27 622.19C1854.84 626.71 1853.37 631.01 1851.86 635.07Z" fill="white"/>
<path d="M692.98 755.35L502.21 564.55L368 698.76L335.2 665.96L271.9 729.26L368 825.36L501.86 691.51L629.34 818.99L692.98 755.35Z" fill="black"/>
<path d="M693 366C693 186.42 547.37 40.8701 367.76 41.0001C188.46 41.1301 43 186.69 43 366C43 451.95 76.36 530.1 130.84 588.2L208.42 665.78C225.9 683.26 254.24 683.26 271.72 665.78C289.2 648.3 289.2 619.96 271.72 602.48L196.51 527.27C156.28 484.36 131.98 426.35 133.03 362.65C135.13 234.68 240.32 131.43 368.31 131.6C497.96 131.77 603 236.91 603 366.6C603 428.75 578.88 485.25 539.48 527.27L534.03 532.72L597.33 596.02L605.15 588.2C659.63 530.09 692.99 451.94 692.99 365.99L693 366Z" fill="url(#owk-gradient)"/>
<path d="M368.21 175.92C263.27 175.92 178.21 260.98 178.21 365.92C178.21 394.39 184.48 421.39 195.7 445.64C198.52 451.73 201.65 457.64 205.08 463.36C213.42 473.09 225.8 479.27 239.63 479.27C248.85 479.27 257.43 476.52 264.6 471.8C269.79 468.38 274.24 463.93 277.66 458.74C282.38 451.57 285.13 442.99 285.13 433.77C285.13 427.94 284.02 422.38 282.03 417.26C280.32 414.36 278.74 411.36 277.32 408.28C271.48 395.58 268.22 381.44 268.22 366.54C268.22 311.31 312.99 266.54 368.22 266.54C423.45 266.54 468.22 311.31 468.22 366.54C468.22 392.99 457.95 417.03 441.19 434.91L305.07 571.34L368.22 634.49L506.87 495.84C538.72 461.87 558.22 416.18 558.22 365.94C558.22 261 473.16 175.94 368.22 175.94L368.21 175.92Z" fill="url(#owk-gradient)"/>
<path d="M2440.31 226.93C2434.36 226.93 2428.74 225.84 2423.44 223.67C2418.14 221.49 2413.54 218.45 2409.62 214.53C2405.7 210.61 2402.62 205.97 2400.37 200.6C2398.12 195.23 2397 189.36 2397 182.97C2397 176.58 2398.12 170.71 2400.37 165.34C2402.62 159.97 2405.7 155.33 2409.62 151.41C2413.54 147.49 2418.14 144.45 2423.44 142.27C2428.73 140.09 2434.36 139 2440.31 139C2446.26 139 2451.85 140.09 2457.07 142.27C2462.29 144.45 2466.86 147.49 2470.78 151.41C2474.7 155.33 2477.78 159.97 2480.03 165.34C2482.28 170.71 2483.4 176.59 2483.4 182.97C2483.4 189.35 2482.27 195.23 2480.03 200.6C2477.78 205.97 2474.7 210.61 2470.78 214.53C2466.86 218.45 2462.29 221.49 2457.07 223.67C2451.85 225.85 2446.26 226.93 2440.31 226.93ZM2440.31 216.26C2449.45 216.26 2456.92 213.25 2462.73 207.23C2468.53 201.21 2471.44 193.12 2471.44 182.96C2471.44 172.8 2468.54 164.71 2462.73 158.69C2456.92 152.67 2449.45 149.66 2440.31 149.66C2435.66 149.66 2431.46 150.46 2427.69 152.05C2423.91 153.65 2420.62 155.9 2417.79 158.8C2414.96 161.71 2412.78 165.19 2411.26 169.25C2409.74 173.31 2408.97 177.88 2408.97 182.96C2408.97 188.04 2409.73 192.61 2411.26 196.67C2412.78 200.73 2414.96 204.22 2417.79 207.12C2420.62 210.02 2423.92 212.27 2427.69 213.87C2431.46 215.47 2435.67 216.26 2440.31 216.26ZM2422.68 204.07V161.19H2442.05C2447.13 161.19 2451.33 162.35 2454.67 164.67C2458.01 166.99 2459.68 170.62 2459.68 175.55C2459.68 180.92 2457.14 184.84 2452.06 187.3L2460.98 204.06H2447.92L2441.39 191H2435.08V204.06H2422.67L2422.68 204.07ZM2435.09 182.31H2439.66C2441.84 182.31 2443.47 181.69 2444.56 180.46C2445.65 179.23 2446.19 177.81 2446.19 176.22C2446.19 174.63 2445.65 173.28 2444.56 172.19C2443.47 171.1 2441.84 170.56 2439.66 170.56H2435.09V182.31Z" fill="white"/>
<path d="M2120.59 456.21L2102.2 506.86L2064.21 448.33C2032.34 444.99 2000.13 443.51 1968.06 443.87L2027.31 535.83L2191.44 535.85L2208.75 476.78C2179.78 468.27 2150.32 461.437 2120.59 456.21Z" fill="black"/>
<path d="M1830.1 457.06L1828.56 500.14L1816.74 459.6C1787.23 465.47 1757.95 473.01 1729.55 482.01L1742.25 535.84L1881.72 535.81L1946.03 444.42C1907.15 445.895 1868.37 450.106 1830.09 457.05L1830.1 457.06Z" fill="black"/>
<path d="M2430.95 535.78L2328.11 183.09H2219.74L2131.13 427.18C2236.88 443.089 2339.51 480.363 2430.95 535.78ZM2273.65 285.39L2309.72 430.81L2235.72 400.81L2273.65 285.39Z" fill="black"/>
<path d="M2044.98 418.71L2005.87 358.45L2132.08 183.07H2026.24L1925.37 326.2L1930.53 183.08H1839.88L1830.82 436.72C1901.03 421.473 1973.19 415.391 2044.98 418.71Z" fill="black"/>
<path d="M1812.38 441.21L1737.12 183.09L1626.73 182.82L1501.73 535.82L1583.41 535.86C1651.5 494.686 1729.84 461.347 1812.38 441.21ZM1682.65 285.39L1711.72 403.81L1633.72 435.81L1682.65 285.39Z" fill="black"/>
<path d="M1574.72 182.81L1474.36 183.1L1414.01 401.81L1365.98 183.11L1322.72 182.81L1252.37 408.37L1202.92 183.11L1111.77 183.12L1198.42 535.87H1289.07L1334.89 390.23L1370.09 535.86L1459.72 535.81L1574.72 182.81Z" fill="black"/>
<path d="M926.38 175.57C814.97 175.57 741.76 256.21 738.81 353.97C735.5 452.74 813.1 543.45 924 543.44C1036.42 543.44 1107.54 462.3 1110.41 364.03C1113.21 265.26 1036.26 175.56 926.37 175.57H926.38ZM1019.64 359.5C1017.97 415.94 973.88 455.25 919.69 455.25C865.5 455.25 827.56 415.95 829.74 359.5C831.92 303.06 873.99 263.75 928.17 263.75C982.36 263.75 1021.82 303.05 1019.64 359.49V359.5Z" fill="black"/>
<defs>
<linearGradient id="owk-gradient" x1="134" y1="599" x2="586" y2="147" gradientUnits="userSpaceOnUse">
<stop stop-color="#FF8827"/>
<stop offset="1" stop-color="#FF741F"/>
</linearGradient>
</defs>
</svg>
