<svg viewBox="0 0 2491 888" xmlns="http://www.w3.org/2000/svg">
<path d="M927.77 582.28L927.76 582.29C871.565 582.288 819.145 562.843 778.153 527.159C819.147 562.843 871.572 582.28 927.77 582.28Z" fill="white"/>
<path d="M764.09 513.81C806.79 557.97 864.92 582.28 927.77 582.28L927.76 582.29C960.5 582.29 991.44 576.47 1019.71 564.99C1047.12 553.86 1071.42 537.7 1091.92 516.96C1111.98 496.665 1127.73 472.571 1138.63 445.985L1170.25 574.71L1324.64 574.7L1334.34 543.87L1341.79 574.7L1597.86 574.69C1609.63 567.559 1621.42 560.479 1633.46 553.8C1655 541.86 1677.28 530.88 1700.07 520.98L1712.74 574.68L1907.27 574.64L1959.85 499.93L2008.21 574.67L2225.62 574.69L2251.3 493.654L2411.29 574.65L2490.68 574.57L2363.36 137.93L2008.22 137.91L1976.19 183.35L1977.83 137.92H1803.11L1799.64 234.92L1771.36 137.93L1447.14 137.94L1423.41 223.94L1404.57 138.17L1296.65 137.44L1264.19 241.5L1241.46 137.95L1062.96 137.96L1073.46 180.701C1033.57 148.104 983.556 130.41 930.14 130.41C866.38 130.41 808.12 153.4 766.09 195.15C725.66 235.31 702.4 290.12 700.6 349.48C698.59 410.12 721.73 470.01 764.09 513.81ZM875.47 357.96C876.74 324.84 899.43 302.59 931.93 302.59V302.58C947.18 302.58 959.91 307.44 968.76 316.63C977.65 325.88 982.04 339.04 981.42 354.7V355.08C980.46 387.46 956.62 410.08 923.45 410.08C908.7 410.08 896.46 405.46 888.05 396.72C879.2 387.52 874.85 374.12 875.47 357.96ZM2169.91 204.48L2095.27 410.07L2060.5 356.51L2169.91 204.48Z" fill="white"/>
<path d="M367.92 887.94L504.66 751.2L641.4 887.94H668.68L668.67 674.62L624.934 630.926L636.39 619.47C698.06 553.68 735.83 465.22 735.83 367.92H735.84C735.84 164.72 571.12 0 367.92 0C164.72 0 0 164.72 0 367.92C0 465.21 37.77 553.68 99.44 619.46L367.92 887.94Z" fill="white"/>
<path d="M367.26 175.78C262.32 175.78 177.26 260.84 177.26 365.78C177.26 394.25 183.53 421.25 194.75 445.5C197.57 451.59 200.7 457.5 204.13 463.22C212.47 472.95 224.85 479.13 238.68 479.13C247.9 479.13 256.48 476.38 263.65 471.66C268.84 468.24 273.29 463.79 276.71 458.6C281.43 451.43 284.18 442.85 284.18 433.63C284.18 427.8 283.07 422.24 281.08 417.12C279.37 414.22 277.79 411.22 276.37 408.14C270.53 395.44 267.27 381.3 267.27 366.4C267.27 311.17 312.04 266.4 367.27 266.4C422.5 266.4 467.27 311.17 467.27 366.4C467.27 392.85 457 416.89 440.24 434.77L304.12 571.2L367.27 634.35L505.92 495.7C537.77 461.73 557.27 416.04 557.27 365.8C557.27 260.86 472.21 175.8 367.27 175.8L367.26 175.78Z" fill="url(#owk-gradient)"/>
<path d="M501.55 564.2L367.34 698.42L272.03 603.11L271.67 729.2L367.34 825.02L501.19 691.16L628.68 818.65L628.67 691.2L501.55 564.2Z" fill="black"/>
<path d="M501.55 564.2L367.34 698.42L272.03 603.11L271.67 729.2L367.34 825.02L501.19 691.16L628.68 818.65L628.67 691.2L501.55 564.2Z" fill="black"/>
<path d="M195.85 526.93C155.62 484.02 131.32 426.01 132.37 362.31C134.47 234.34 239.66 131.09 367.65 131.26C497.3 131.43 602.34 236.57 602.34 366.26C602.34 428.41 578.22 484.91 538.82 526.93L533.37 532.38L596.67 595.68L604.49 587.86C658.97 529.75 692.33 451.6 692.33 365.65C692.33 186.07 546.7 40.52 367.09 40.65C187.78 40.78 42.3301 186.34 42.3301 365.65C42.3301 451.6 75.6901 529.75 130.17 587.85L145.25 602.93C162.73 620.41 191.07 620.41 208.55 602.93C226.03 585.45 226.03 557.11 208.55 539.63L195.84 526.92L195.85 526.93Z" fill="url(#owk-gradient)"/>
<path d="M1678.11 676.31L1685.2 595.17H1703.44L1697.7 660.88H1729.71L1728.36 676.31H1678.11Z" fill="white"/>
<path d="M1742.37 676.31L1749.46 595.17H1767.7L1760.61 676.31H1742.37Z" fill="white"/>
<path d="M1793.74 676.32L1776.38 595.18H1795.73L1802.1 633.01C1802.95 637.49 1803.67 641.83 1804.25 646.01C1804.83 650.2 1805.55 654.54 1806.4 659.01H1806.9C1808.45 654.53 1809.9 650.2 1811.26 646.01C1812.62 641.82 1814.07 637.48 1815.62 633.01L1828.48 595.18H1847.09L1815.69 676.32H1793.73H1793.74Z" fill="white"/>
<path d="M1848.7 676.32L1855.79 595.18H1906.41L1905.06 610.61H1872.68L1871.26 626.91H1898.8L1897.46 642.22H1869.92L1868.29 660.89H1901.91L1900.56 676.32H1848.7Z" fill="white"/>
<path d="M1957.26 676.32L1963 610.61H1940.79L1942.14 595.18H2004.92L2003.57 610.61H1981.36L1975.62 676.32H1957.26Z" fill="white"/>
<path d="M2010.49 676.32L2017.58 595.18H2046.74C2051.04 595.18 2055.04 595.6 2058.73 596.43C2062.42 597.26 2065.59 598.65 2068.23 600.6C2070.87 602.55 2072.88 605.14 2074.25 608.38C2075.62 611.62 2076.1 615.64 2075.68 620.45C2075.16 626.42 2073.43 631.34 2070.48 635.2C2067.54 639.06 2063.79 641.94 2059.24 643.85L2074.77 676.33H2054.3L2041.34 647.08H2031.29L2028.74 676.33H2010.5L2010.49 676.32ZM2032.55 632.52H2041.98C2046.78 632.52 2050.53 631.51 2053.23 629.47C2055.93 627.44 2057.45 624.43 2057.8 620.45C2058.15 616.47 2057.13 613.69 2054.74 612.11C2052.35 610.53 2048.76 609.75 2043.97 609.74H2034.54L2032.55 632.52Z" fill="white"/>
<path d="M2075.25 676.32L2107.65 595.18H2129.61L2147.83 676.32H2128.47L2125.19 657.03H2100.5L2093.85 676.32H2075.24H2075.25ZM2108.12 635.26L2105.48 642.73H2122.73L2121.52 635.26C2120.72 631.2 2119.98 626.88 2119.3 622.32C2118.62 617.76 2117.93 613.36 2117.23 609.13H2116.73C2115.36 613.45 2113.96 617.86 2112.53 622.38C2111.1 626.9 2109.63 631.2 2108.12 635.26Z" fill="white"/>
<path d="M2189.02 677.82C2183.89 677.82 2179.13 676.93 2174.74 675.15C2170.35 673.37 2166.58 670.73 2163.46 667.25C2160.33 663.77 2158 659.43 2156.47 654.25C2154.94 649.07 2154.47 643.07 2155.06 636.27C2155.65 629.55 2157.2 623.56 2159.73 618.29C2162.26 613.02 2165.42 608.56 2169.21 604.91C2173 601.26 2177.3 598.48 2182.1 596.57C2186.9 594.66 2191.86 593.71 2196.99 593.71C2202.12 593.71 2206.78 594.77 2210.73 596.88C2214.68 599 2217.9 601.47 2220.38 604.29L2209.68 615.99C2207.78 614.08 2205.74 612.53 2203.57 611.32C2201.4 610.12 2198.87 609.52 2195.97 609.52C2193.24 609.52 2190.6 610.12 2188.06 611.32C2185.51 612.52 2183.25 614.24 2181.28 616.49C2179.31 618.73 2177.66 621.47 2176.34 624.7C2175.02 627.94 2174.19 631.59 2173.83 635.65C2173.1 644.03 2174.31 650.52 2177.46 655.13C2180.61 659.73 2185.17 662.04 2191.13 662.04C2194.44 662.04 2197.46 661.31 2200.19 659.86C2202.92 658.41 2205.37 656.61 2207.55 654.45L2216.23 665.9C2208.75 673.86 2199.68 677.85 2189.01 677.85L2189.02 677.82Z" fill="white"/>
<path d="M2227.61 676.33L2234.7 595.19H2252.94L2250.04 628.42H2250.54L2277.51 595.19H2297.61L2270.34 627.55L2294.99 676.34H2275.01L2258.27 642.12L2247.75 654.57L2245.85 676.35H2227.61V676.33Z" fill="white"/>
<path d="M2303.79 676.33L2310.88 595.19H2329.12L2322.03 676.33H2303.79Z" fill="white"/>
<path d="M2341.13 676.33L2348.22 595.19H2366.95L2384.52 635.51L2390.9 653.43H2391.4C2391.36 649.12 2391.31 644.31 2391.23 638.99C2391.15 633.68 2391.33 628.62 2391.75 623.81L2394.25 595.19H2411.62L2404.53 676.33H2385.8L2368.24 635.88L2361.84 618.21H2361.34C2361.36 622.69 2361.42 627.5 2361.51 632.65C2361.6 637.8 2361.43 642.77 2361.01 647.58L2358.5 676.33H2341.13Z" fill="white"/>
<path d="M2459.24 677.83C2453.7 677.83 2448.59 676.94 2443.9 675.16C2439.22 673.38 2435.25 670.74 2432 667.26C2428.75 663.78 2426.33 659.44 2424.76 654.26C2423.18 649.08 2422.7 643.08 2423.29 636.28C2423.88 629.56 2425.43 623.57 2427.96 618.3C2430.49 613.03 2433.71 608.57 2437.63 604.92C2441.55 601.27 2445.99 598.49 2450.95 596.58C2455.91 594.67 2461.08 593.72 2466.46 593.72C2472.33 593.72 2477.28 594.8 2481.31 596.96C2485.34 599.12 2488.56 601.56 2490.97 604.3L2480.39 616C2478.48 614.18 2476.42 612.64 2474.22 611.4C2472.01 610.16 2469.17 609.53 2465.7 609.53C2462.56 609.53 2459.63 610.13 2456.92 611.33C2454.21 612.53 2451.8 614.25 2449.71 616.5C2447.61 618.74 2445.9 621.48 2444.59 624.71C2443.27 627.95 2442.44 631.6 2442.08 635.66C2441.35 644.04 2442.66 650.53 2446.02 655.14C2449.38 659.74 2454.87 662.05 2462.48 662.05C2464.13 662.05 2465.76 661.84 2467.37 661.43C2468.98 661.02 2470.31 660.39 2471.38 659.56L2472.6 645.62H2459.2L2460.5 630.69H2490.03L2486.77 668.03C2483.72 670.77 2479.79 673.09 2475 675C2470.2 676.91 2464.95 677.86 2459.24 677.86V677.83Z" fill="white"/>
<path d="M2444.31 226.93C2438.36 226.93 2432.74 225.84 2427.44 223.67C2422.14 221.49 2417.54 218.45 2413.62 214.53C2409.7 210.61 2406.62 205.97 2404.37 200.6C2402.12 195.23 2401 189.36 2401 182.97C2401 176.58 2402.12 170.71 2404.37 165.34C2406.62 159.97 2409.7 155.33 2413.62 151.41C2417.54 147.49 2422.14 144.45 2427.44 142.27C2432.73 140.09 2438.36 139 2444.31 139C2450.26 139 2455.85 140.09 2461.07 142.27C2466.29 144.45 2470.86 147.49 2474.78 151.41C2478.7 155.33 2481.78 159.97 2484.03 165.34C2486.28 170.71 2487.4 176.59 2487.4 182.97C2487.4 189.35 2486.27 195.23 2484.03 200.6C2481.78 205.97 2478.7 210.61 2474.78 214.53C2470.86 218.45 2466.29 221.49 2461.07 223.67C2455.85 225.85 2450.26 226.93 2444.31 226.93ZM2444.31 216.26C2453.45 216.26 2460.92 213.25 2466.73 207.23C2472.53 201.21 2475.44 193.12 2475.44 182.96C2475.44 172.8 2472.54 164.71 2466.73 158.69C2460.92 152.67 2453.45 149.66 2444.31 149.66C2439.66 149.66 2435.46 150.46 2431.69 152.05C2427.91 153.65 2424.62 155.9 2421.79 158.8C2418.96 161.71 2416.78 165.19 2415.26 169.25C2413.74 173.31 2412.97 177.88 2412.97 182.96C2412.97 188.04 2413.73 192.61 2415.26 196.67C2416.78 200.73 2418.96 204.22 2421.79 207.12C2424.62 210.02 2427.92 212.27 2431.69 213.87C2435.46 215.47 2439.67 216.26 2444.31 216.26ZM2426.68 204.07V161.19H2446.05C2451.13 161.19 2455.33 162.35 2458.67 164.67C2462.01 166.99 2463.68 170.62 2463.68 175.55C2463.68 180.92 2461.14 184.84 2456.06 187.3L2464.98 204.06H2451.92L2445.39 191H2439.08V204.06H2426.67L2426.68 204.07ZM2439.09 182.31H2443.66C2445.84 182.31 2447.47 181.69 2448.56 180.46C2449.65 179.23 2450.19 177.81 2450.19 176.22C2450.19 174.63 2449.65 173.28 2448.56 172.19C2447.47 171.1 2445.84 170.56 2443.66 170.56H2439.09V182.31Z" fill="white"/>
<path d="M2124.59 456.21L2106.2 506.86L2068.21 448.33C2036.34 444.99 2004.13 443.51 1972.06 443.87L2031.31 535.83L2195.44 535.85L2212.75 476.78C2183.78 468.27 2154.32 461.437 2124.59 456.21Z" fill="black"/>
<path d="M1834.1 457.06L1832.56 500.14L1820.74 459.6C1791.23 465.47 1761.95 473.01 1733.55 482.01L1746.25 535.84L1885.72 535.81L1950.03 444.42C1911.15 445.895 1872.37 450.106 1834.09 457.05L1834.1 457.06Z" fill="black"/>
<path d="M2434.95 535.78L2332.11 183.09H2223.74L2135.13 427.18C2240.88 443.089 2343.51 480.363 2434.95 535.78ZM2277.65 285.39L2313.72 430.81L2239.72 400.81L2277.65 285.39Z" fill="black"/>
<path d="M2048.98 418.71L2009.87 358.45L2136.08 183.07H2030.24L1929.37 326.2L1934.53 183.08H1843.88L1834.82 436.72C1905.03 421.473 1977.19 415.391 2048.98 418.71Z" fill="black"/>
<path d="M1816.38 441.21L1741.12 183.09L1630.73 182.82L1505.73 535.82L1587.41 535.86C1655.5 494.686 1733.84 461.347 1816.38 441.21ZM1686.65 285.39L1715.72 403.81L1637.72 435.81L1686.65 285.39Z" fill="black"/>
<path d="M1578.72 182.81L1478.36 183.1L1418.01 401.81L1369.98 183.11L1326.72 182.81L1256.37 408.37L1206.92 183.11L1115.77 183.12L1202.42 535.87H1293.07L1338.89 390.23L1374.09 535.86L1463.72 535.81L1578.72 182.81Z" fill="black"/>
<path d="M930.38 175.57C818.97 175.57 745.76 256.21 742.81 353.97C739.5 452.74 817.1 543.45 928 543.44C1040.42 543.44 1111.54 462.3 1114.41 364.03C1117.21 265.26 1040.26 175.56 930.37 175.57H930.38ZM1023.64 359.5C1021.97 415.94 977.88 455.25 923.69 455.25C869.5 455.25 831.56 415.95 833.74 359.5C835.92 303.06 877.99 263.75 932.17 263.75C986.36 263.75 1025.82 303.05 1023.64 359.49V359.5Z" fill="black"/>
<defs>
<linearGradient id="owk-gradient" x1="134" y1="599" x2="586" y2="147" gradientUnits="userSpaceOnUse">
<stop stop-color="#FF8827"/>
<stop offset="1" stop-color="#FF741F"/>
</linearGradient>
</defs>
</svg>
