<svg viewBox="0 0 1734 1420" xmlns="http://www.w3.org/2000/svg">
<path d="M881.822 1418.34L888.912 1337.2H907.152L901.412 1402.91H933.422L932.072 1418.34H881.822Z" fill="#FF741F"/>
<path d="M946.092 1418.35L953.182 1337.21H971.422L964.332 1418.35H946.092Z" fill="#FF741F"/>
<path d="M997.452 1418.35L980.092 1337.21H999.442L1005.81 1375.04C1006.66 1379.52 1007.38 1383.86 1007.96 1388.04C1008.54 1392.23 1009.26 1396.57 1010.11 1401.04H1010.61C1012.16 1396.56 1013.61 1392.23 1014.97 1388.04C1016.33 1383.85 1017.78 1379.51 1019.33 1375.04L1032.19 1337.21H1050.8L1019.4 1418.35H997.442H997.452Z" fill="#FF741F"/>
<path d="M1052.42 1418.35L1059.51 1337.21H1110.13L1108.78 1352.64H1076.4L1074.98 1368.94H1102.52L1101.18 1384.25H1073.64L1072.01 1402.92H1105.63L1104.28 1418.35H1052.42Z" fill="#FF741F"/>
<path d="M1160.98 1418.35L1166.72 1352.64H1144.51L1145.86 1337.21H1208.64L1207.29 1352.64H1185.08L1179.34 1418.35H1160.98Z" fill="#FF741F"/>
<path d="M1214.2 1418.35L1221.29 1337.21H1250.45C1254.75 1337.21 1258.75 1337.63 1262.44 1338.46C1266.13 1339.29 1269.3 1340.68 1271.94 1342.63C1274.58 1344.58 1276.59 1347.17 1277.96 1350.41C1279.33 1353.65 1279.81 1357.67 1279.39 1362.48C1278.87 1368.45 1277.14 1373.37 1274.19 1377.23C1271.25 1381.09 1267.5 1383.97 1262.95 1385.88L1278.48 1418.36H1258.01L1245.05 1389.11H1235L1232.45 1418.36H1214.21L1214.2 1418.35ZM1236.27 1374.55H1245.7C1250.5 1374.55 1254.25 1373.53 1256.95 1371.5C1259.65 1369.47 1261.17 1366.46 1261.52 1362.48C1261.87 1358.5 1260.85 1355.72 1258.46 1354.14C1256.07 1352.56 1252.48 1351.78 1247.69 1351.78H1238.26L1236.27 1374.56V1374.55Z" fill="#FF741F"/>
<path d="M1278.97 1418.36L1311.37 1337.22H1333.33L1351.55 1418.36H1332.19L1328.91 1399.07H1304.22L1297.57 1418.36H1278.96H1278.97ZM1311.83 1377.29L1309.19 1384.76H1326.44L1325.23 1377.29C1324.43 1373.23 1323.69 1368.91 1323.01 1364.35C1322.33 1359.79 1321.64 1355.39 1320.94 1351.16H1320.44C1319.07 1355.48 1317.67 1359.89 1316.24 1364.41C1314.81 1368.93 1313.34 1373.23 1311.83 1377.29Z" fill="#FF741F"/>
<path d="M1392.73 1419.85C1387.6 1419.85 1382.84 1418.96 1378.45 1417.17C1374.06 1415.39 1370.29 1412.75 1367.17 1409.27C1364.04 1405.79 1361.71 1401.45 1360.18 1396.27C1358.65 1391.09 1358.18 1385.09 1358.77 1378.29C1359.36 1371.57 1360.91 1365.58 1363.44 1360.31C1365.97 1355.04 1369.13 1350.58 1372.92 1346.93C1376.71 1343.28 1381.01 1340.5 1385.81 1338.59C1390.61 1336.68 1395.57 1335.73 1400.7 1335.73C1405.83 1335.73 1410.49 1336.79 1414.44 1338.9C1418.39 1341.02 1421.61 1343.48 1424.09 1346.3L1413.39 1358C1411.49 1356.09 1409.45 1354.54 1407.28 1353.33C1405.11 1352.13 1402.58 1351.53 1399.68 1351.53C1396.95 1351.53 1394.31 1352.13 1391.77 1353.33C1389.22 1354.53 1386.96 1356.25 1384.99 1358.5C1383.01 1360.74 1381.37 1363.48 1380.05 1366.71C1378.73 1369.95 1377.9 1373.6 1377.54 1377.66C1376.81 1386.04 1378.02 1392.53 1381.18 1397.14C1384.33 1401.74 1388.89 1404.05 1394.84 1404.05C1398.15 1404.05 1401.17 1403.32 1403.9 1401.87C1406.63 1400.42 1409.08 1398.62 1411.26 1396.46L1419.94 1407.91C1412.46 1415.87 1403.39 1419.86 1392.72 1419.86L1392.73 1419.85Z" fill="#FF741F"/>
<path d="M1431.32 1418.36L1438.41 1337.22H1456.65L1453.75 1370.45H1454.25L1481.22 1337.22H1501.32L1474.05 1369.58L1498.7 1418.37H1478.72L1461.98 1384.15L1451.46 1396.59L1449.56 1418.37H1431.32V1418.36Z" fill="#FF741F"/>
<path d="M1507.5 1418.36L1514.59 1337.22H1532.83L1525.74 1418.36H1507.5Z" fill="#FF741F"/>
<path d="M1544.85 1418.36L1551.94 1337.22H1570.67L1588.24 1377.54L1594.62 1395.46H1595.12C1595.08 1391.15 1595.03 1386.34 1594.95 1381.02C1594.87 1375.71 1595.05 1370.65 1595.47 1365.84L1597.97 1337.22H1615.34L1608.25 1418.36H1589.52L1571.96 1377.91L1565.56 1360.24H1565.06C1565.08 1364.72 1565.14 1369.53 1565.23 1374.68C1565.32 1379.83 1565.15 1384.8 1564.73 1389.61L1562.22 1418.36H1544.85Z" fill="#FF741F"/>
<path d="M1662.96 1419.86C1657.42 1419.86 1652.31 1418.97 1647.62 1417.18C1642.94 1415.4 1638.97 1412.76 1635.72 1409.28C1632.47 1405.8 1630.05 1401.46 1628.48 1396.28C1626.9 1391.1 1626.42 1385.1 1627.01 1378.3C1627.6 1371.58 1629.15 1365.59 1631.68 1360.32C1634.21 1355.05 1637.43 1350.59 1641.35 1346.94C1645.27 1343.29 1649.71 1340.51 1654.67 1338.6C1659.63 1336.69 1664.8 1335.74 1670.18 1335.74C1676.05 1335.74 1681.01 1336.82 1685.03 1338.98C1689.06 1341.14 1692.28 1343.59 1694.69 1346.32L1684.12 1358.02C1682.21 1356.2 1680.15 1354.66 1677.95 1353.42C1675.74 1352.18 1672.9 1351.55 1669.43 1351.55C1666.29 1351.55 1663.36 1352.15 1660.65 1353.35C1657.94 1354.55 1655.53 1356.27 1653.44 1358.52C1651.34 1360.76 1649.63 1363.5 1648.32 1366.73C1647 1369.97 1646.17 1373.62 1645.81 1377.68C1645.08 1386.06 1646.39 1392.55 1649.75 1397.16C1653.11 1401.76 1658.6 1404.07 1666.21 1404.07C1667.86 1404.07 1669.5 1403.86 1671.1 1403.45C1672.71 1403.04 1674.04 1402.41 1675.11 1401.58L1676.33 1387.64H1662.93L1664.23 1372.71H1693.76L1690.5 1410.05C1687.45 1412.79 1683.52 1415.11 1678.73 1417.02C1673.93 1418.93 1668.68 1419.88 1662.97 1419.88L1662.96 1419.86Z" fill="#FF741F"/>
<path d="M866.92 135.13C761.98 135.13 676.92 220.19 676.92 325.13C676.92 353.6 683.19 380.6 694.41 404.85C697.23 410.94 700.36 416.85 703.79 422.57C712.13 432.3 724.51 438.48 738.34 438.48C747.56 438.48 756.14 435.73 763.31 431.01C768.5 427.59 772.95 423.14 776.37 417.95C781.09 410.78 783.84 402.2 783.84 392.98C783.84 387.15 782.73 381.59 780.74 376.47C779.03 373.57 777.45 370.57 776.03 367.49C770.19 354.79 766.93 340.65 766.93 325.75C766.93 270.52 811.7 225.75 866.93 225.75C922.16 225.75 966.93 270.52 966.93 325.75C966.93 352.2 956.66 376.24 939.9 394.12L803.78 530.55L866.93 593.7L1005.58 455.05C1037.43 421.08 1056.93 375.39 1056.93 325.15C1056.93 220.21 971.87 135.15 866.93 135.15L866.92 135.13Z" fill="url(#owk-gradient)"/>
<path d="M1001.21 523.55L867 657.76L771.7 562.46L771.33 688.54L867 784.36L1000.86 650.51L1128.34 777.99L1128.33 650.54L1001.21 523.55Z" fill="white"/>
<path d="M695.52 486.28C655.29 443.37 630.99 385.36 632.04 321.66C634.14 193.69 739.33 90.4401 867.32 90.6101C996.97 90.7801 1102.01 195.92 1102.01 325.61C1102.01 387.76 1077.89 444.26 1038.49 486.28L1033.04 491.73L1096.34 555.03L1104.16 547.21C1158.64 489.1 1192 410.95 1192 325C1192 145.42 1046.37 -0.129913 866.76 8.70157e-05C687.46 0.130087 542 145.69 542 325C542 410.95 575.36 489.1 629.84 547.2L644.92 562.28C662.4 579.76 690.74 579.76 708.22 562.28C725.7 544.8 725.7 516.46 708.22 498.98L695.51 486.27L695.52 486.28Z" fill="url(#owk-gradient)"/>
<path d="M1690.21 1020.75C1684.26 1020.75 1678.64 1019.66 1673.34 1017.49C1668.04 1015.31 1663.44 1012.27 1659.52 1008.35C1655.6 1004.43 1652.52 999.79 1650.27 994.42C1648.02 989.05 1646.9 983.18 1646.9 976.79C1646.9 970.4 1648.02 964.53 1650.27 959.16C1652.52 953.79 1655.6 949.15 1659.52 945.23C1663.44 941.31 1668.04 938.27 1673.34 936.09C1678.63 933.91 1684.26 932.82 1690.21 932.82C1696.16 932.82 1701.75 933.91 1706.97 936.09C1712.19 938.27 1716.76 941.31 1720.68 945.23C1724.6 949.15 1727.68 953.79 1729.93 959.16C1732.18 964.53 1733.3 970.41 1733.3 976.79C1733.3 983.17 1732.17 989.05 1729.93 994.42C1727.68 999.79 1724.6 1004.43 1720.68 1008.35C1716.76 1012.27 1712.19 1015.31 1706.97 1017.49C1701.75 1019.67 1696.16 1020.75 1690.21 1020.75ZM1690.21 1010.08C1699.35 1010.08 1706.82 1007.07 1712.63 1001.05C1718.43 995.03 1721.34 986.94 1721.34 976.78C1721.34 966.62 1718.44 958.53 1712.63 952.51C1706.82 946.49 1699.35 943.48 1690.21 943.48C1685.56 943.48 1681.36 944.28 1677.59 945.87C1673.81 947.47 1670.52 949.72 1667.69 952.62C1664.86 955.53 1662.68 959.01 1661.16 963.07C1659.64 967.13 1658.87 971.7 1658.87 976.78C1658.87 981.86 1659.63 986.43 1661.16 990.49C1662.68 994.55 1664.86 998.04 1667.69 1000.94C1670.52 1003.84 1673.82 1006.09 1677.59 1007.69C1681.36 1009.29 1685.57 1010.08 1690.21 1010.08ZM1672.58 997.89V955.01H1691.95C1697.03 955.01 1701.23 956.17 1704.57 958.49C1707.91 960.81 1709.58 964.44 1709.58 969.37C1709.58 974.74 1707.04 978.66 1701.96 981.12L1710.88 997.88H1697.82L1691.29 984.82H1684.98V997.88H1672.57L1672.58 997.89ZM1684.99 976.13H1689.56C1691.74 976.13 1693.37 975.51 1694.46 974.28C1695.55 973.05 1696.09 971.63 1696.09 970.04C1696.09 968.45 1695.55 967.1 1694.46 966.01C1693.37 964.92 1691.74 964.38 1689.56 964.38H1684.99V976.13Z" fill="white"/>
<path d="M1381.88 1206.64L1363.49 1257.29L1325.5 1198.76C1293.63 1195.42 1261.42 1193.94 1229.35 1194.3L1288.6 1286.26L1452.73 1286.28L1470.04 1227.21C1441.07 1218.7 1411.62 1211.87 1381.88 1206.64Z" fill="white"/>
<path d="M1091.39 1207.49L1089.85 1250.57L1078.03 1210.03C1048.52 1215.9 1019.24 1223.44 990.842 1232.44L1003.54 1286.27L1143.01 1286.24L1207.32 1194.85C1168.44 1196.33 1129.67 1200.54 1091.38 1207.48L1091.39 1207.49Z" fill="white"/>
<path d="M1692.24 1286.21L1589.4 933.52H1481.03L1392.42 1177.61C1498.17 1193.52 1600.8 1230.79 1692.24 1286.21ZM1534.94 1035.82L1571.01 1181.24L1497.01 1151.24L1534.94 1035.82Z" fill="white"/>
<path d="M1306.27 1169.14L1267.16 1108.88L1393.37 933.5H1287.53L1186.66 1076.63L1191.82 933.51H1101.17L1092.11 1187.15C1162.32 1171.9 1234.48 1165.82 1306.27 1169.14Z" fill="white"/>
<path d="M1073.67 1191.64L998.412 933.52L888.022 933.25L763.022 1286.25L844.702 1286.29C912.788 1245.12 991.134 1211.78 1073.67 1191.64ZM943.942 1035.82L973.012 1154.24L895.012 1186.24L943.942 1035.82Z" fill="white"/>
<path d="M836.012 933.24L735.652 933.53L675.302 1152.24L627.272 933.54L584.012 933.24L513.662 1158.8L464.212 933.54L373.062 933.55L459.712 1286.3H550.362L596.182 1140.66L631.382 1286.29L721.012 1286.24L836.012 933.24Z" fill="white"/>
<path d="M187.672 926C76.262 926 3.05197 1006.64 0.101969 1104.4C-3.20803 1203.17 74.392 1293.88 185.292 1293.87C297.712 1293.87 368.832 1212.73 371.702 1114.46C374.502 1015.69 297.552 925.99 187.662 926H187.672ZM280.932 1109.93C279.262 1166.37 235.172 1205.68 180.982 1205.68C126.792 1205.68 88.852 1166.38 91.032 1109.93C93.212 1053.49 135.282 1014.18 189.462 1014.18C243.652 1014.18 283.112 1053.48 280.932 1109.92V1109.93Z" fill="white"/>
<defs>
<linearGradient id="owk-gradient" x1="629" y1="562" x2="1090" y2="101" gradientUnits="userSpaceOnUse">
<stop stop-color="#FF8827"/>
<stop offset="1" stop-color="#FF741F"/>
</linearGradient>
</defs>
</svg>
