<svg viewBox="0 0 1792 1469" xmlns="http://www.w3.org/2000/svg">
<path d="M1733.95 1467.16L1741.04 1386.02H1791.66L1790.31 1401.45H1757.93L1756.51 1417.75H1784.05L1782.71 1433.06H1755.17L1753.54 1451.73H1787.16L1785.81 1467.16H1733.95Z" fill="white"/>
<path d="M1657.9 1467.15L1664.99 1386.01H1694.15C1698.45 1386.01 1702.45 1386.43 1706.14 1387.26C1709.83 1388.09 1713 1389.48 1715.64 1391.43C1718.28 1393.38 1720.29 1395.97 1721.66 1399.21C1723.03 1402.45 1723.51 1406.47 1723.09 1411.28C1722.57 1417.25 1720.84 1422.17 1717.89 1426.03C1714.95 1429.89 1711.2 1432.77 1706.65 1434.68L1722.18 1467.16H1701.71L1688.75 1437.91H1678.7L1676.15 1467.16H1657.91L1657.9 1467.15ZM1679.96 1423.35H1689.39C1694.19 1423.35 1697.94 1422.34 1700.64 1420.3C1703.34 1418.27 1704.86 1415.26 1705.21 1411.28C1705.56 1407.3 1704.54 1404.52 1702.15 1402.94C1699.77 1401.36 1696.17 1400.58 1691.38 1400.58H1681.95L1679.96 1423.35Z" fill="white"/>
<path d="M1607.15 1468.65C1596.65 1468.65 1588.89 1465.54 1583.9 1459.32C1578.9 1453.1 1577 1443.18 1578.19 1429.57L1581.99 1386.01H1600.35L1596.38 1431.43C1595.68 1439.39 1596.4 1444.95 1598.52 1448.11C1600.64 1451.26 1603.98 1452.84 1608.53 1452.84C1613.08 1452.84 1616.73 1451.27 1619.49 1448.11C1622.25 1444.96 1623.97 1439.4 1624.67 1431.43L1628.64 1386.01H1646.26L1642.46 1429.57C1641.27 1443.18 1637.7 1453.09 1631.74 1459.31C1625.78 1465.53 1617.59 1468.64 1607.16 1468.64L1607.15 1468.65Z" fill="white"/>
<path d="M1522.17 1467.15L1527.91 1401.44H1505.7L1507.05 1386.01H1569.83L1568.48 1401.44H1546.27L1540.53 1467.15H1522.17Z" fill="white"/>
<path d="M1423.9 1467.15L1430.99 1386.01H1449.72L1467.29 1426.33L1473.67 1444.25H1474.17C1474.13 1439.94 1474.08 1435.13 1474 1429.81C1473.92 1424.5 1474.1 1419.44 1474.52 1414.63L1477.02 1386.01H1494.39L1487.3 1467.15H1468.57L1451.01 1426.7L1444.61 1409.03H1444.11C1444.13 1413.51 1444.19 1418.32 1444.28 1423.47C1444.37 1428.62 1444.2 1433.59 1443.78 1438.4L1441.27 1467.15H1423.9Z" fill="white"/>
<path d="M1355.91 1467.15L1363 1386.01H1413.62L1412.27 1401.44H1379.89L1378.47 1417.74H1406.01L1404.67 1433.05H1377.13L1375.5 1451.72H1409.12L1407.77 1467.15H1355.91Z" fill="white"/>
<path d="M1300.95 1467.14L1283.59 1386H1302.94L1309.31 1423.83C1310.16 1428.31 1310.88 1432.65 1311.46 1436.83C1312.04 1441.02 1312.76 1445.36 1313.61 1449.83H1314.11C1315.66 1445.35 1317.11 1441.02 1318.47 1436.83C1319.83 1432.64 1321.28 1428.3 1322.83 1423.83L1335.69 1386H1354.3L1322.9 1467.14H1300.94H1300.95Z" fill="white"/>
<path d="M1209.39 1467.14L1216.48 1386H1239.31C1245.51 1386 1251.03 1386.79 1255.85 1388.37C1260.68 1389.95 1264.72 1392.37 1267.99 1395.65C1271.26 1398.93 1273.62 1403.1 1275.09 1408.16C1276.55 1413.22 1276.98 1419.24 1276.37 1426.21C1275.76 1433.18 1274.28 1439.24 1271.93 1444.38C1269.58 1449.53 1266.52 1453.78 1262.75 1457.14C1258.98 1460.5 1254.61 1463.01 1249.62 1464.67C1244.64 1466.33 1239.17 1467.16 1233.21 1467.16H1209.39V1467.14ZM1228.92 1452.33H1232.39C1235.86 1452.33 1239.05 1451.87 1241.94 1450.96C1244.83 1450.05 1247.36 1448.58 1249.52 1446.54C1251.68 1444.51 1253.47 1441.83 1254.87 1438.51C1256.28 1435.19 1257.19 1431.09 1257.62 1426.19C1258.04 1421.38 1257.83 1417.33 1257.01 1414.06C1256.18 1410.78 1254.86 1408.17 1253.04 1406.22C1251.23 1404.27 1248.95 1402.88 1246.21 1402.05C1243.47 1401.22 1240.36 1400.8 1236.89 1400.8H1233.42L1228.92 1452.32V1452.33Z" fill="white"/>
<path d="M1128 1467.14L1160.4 1386H1182.36L1200.58 1467.14H1181.23L1177.95 1447.85H1153.26L1146.61 1467.14H1128ZM1160.86 1426.07L1158.22 1433.54H1175.47L1174.26 1426.07C1173.46 1422.01 1172.72 1417.69 1172.04 1413.13C1171.36 1408.57 1170.67 1404.17 1169.97 1399.94H1169.47C1168.1 1404.26 1166.7 1408.67 1165.27 1413.19C1163.84 1417.71 1162.37 1422.01 1160.86 1426.07Z" fill="white"/>
<path d="M227.291 1378.87L227.281 1378.88C171.086 1378.88 118.666 1359.43 77.6739 1323.75C118.668 1359.43 171.093 1378.87 227.291 1378.87Z" fill="white"/>
<path d="M63.6109 1310.4C106.311 1354.56 164.441 1378.87 227.291 1378.87L227.281 1378.88C260.021 1378.88 290.961 1373.06 319.231 1361.58C346.641 1350.45 370.941 1334.29 391.441 1313.55C411.503 1293.25 427.253 1269.16 438.149 1242.58L469.771 1371.3L624.161 1371.29L633.861 1340.46L641.311 1371.29L897.381 1371.28C909.152 1364.15 920.944 1357.07 932.981 1350.39C954.521 1338.45 976.801 1327.47 999.591 1317.57L1012.26 1371.27L1206.79 1371.23L1259.37 1296.52L1307.73 1371.26L1525.14 1371.28L1550.82 1290.24L1710.81 1371.24L1790.2 1371.16L1662.88 934.52L1307.74 934.5L1275.71 979.94L1277.35 934.51H1102.63L1099.16 1031.51L1070.88 934.52L746.661 934.53L722.931 1020.53L704.091 934.76L596.171 934.03L563.711 1038.09L540.981 934.54L362.481 934.55L372.98 977.291C333.087 944.694 283.077 927 229.661 927C165.901 927 107.641 949.99 65.6109 991.74C25.1809 1031.9 1.92086 1086.71 0.120861 1146.07C-1.88914 1206.71 21.2509 1266.6 63.6109 1310.4ZM174.991 1154.55C176.261 1121.43 198.951 1099.18 231.451 1099.18V1099.17C246.701 1099.17 259.431 1104.03 268.281 1113.22C277.171 1122.47 281.561 1135.63 280.941 1151.29V1151.67C279.981 1184.05 256.141 1206.67 222.971 1206.67C208.221 1206.67 195.981 1202.05 187.571 1193.31C178.721 1184.11 174.371 1170.71 174.991 1154.55ZM1469.43 1001.07L1394.79 1206.66L1360.02 1153.1L1469.43 1001.07Z" fill="white"/>
<path d="M1743.31 1017.93C1737.36 1017.93 1731.74 1016.84 1726.44 1014.67C1721.14 1012.49 1716.54 1009.45 1712.62 1005.53C1708.7 1001.61 1705.62 996.97 1703.37 991.6C1701.12 986.23 1700 980.36 1700 973.97C1700 967.58 1701.12 961.71 1703.37 956.34C1705.62 950.97 1708.7 946.33 1712.62 942.41C1716.54 938.49 1721.14 935.45 1726.44 933.27C1731.73 931.09 1737.36 930 1743.31 930C1749.26 930 1754.85 931.09 1760.07 933.27C1765.29 935.45 1769.86 938.49 1773.78 942.41C1777.7 946.33 1780.78 950.97 1783.03 956.34C1785.28 961.71 1786.4 967.59 1786.4 973.97C1786.4 980.35 1785.27 986.23 1783.03 991.6C1780.78 996.97 1777.7 1001.61 1773.78 1005.53C1769.86 1009.45 1765.29 1012.49 1760.07 1014.67C1754.85 1016.85 1749.26 1017.93 1743.31 1017.93ZM1743.31 1007.26C1752.45 1007.26 1759.92 1004.25 1765.73 998.23C1771.53 992.21 1774.44 984.12 1774.44 973.96C1774.44 963.8 1771.54 955.71 1765.73 949.69C1759.92 943.67 1752.45 940.66 1743.31 940.66C1738.66 940.66 1734.46 941.46 1730.69 943.05C1726.91 944.65 1723.62 946.9 1720.79 949.8C1717.96 952.71 1715.78 956.19 1714.26 960.25C1712.74 964.31 1711.97 968.88 1711.97 973.96C1711.97 979.04 1712.73 983.61 1714.26 987.67C1715.78 991.73 1717.96 995.22 1720.79 998.12C1723.62 1001.02 1726.92 1003.27 1730.69 1004.87C1734.46 1006.47 1738.67 1007.26 1743.31 1007.26ZM1725.68 995.07V952.19H1745.05C1750.13 952.19 1754.33 953.35 1757.67 955.67C1761.01 957.99 1762.68 961.62 1762.68 966.55C1762.68 971.92 1760.14 975.84 1755.06 978.3L1763.98 995.06H1750.92L1744.39 982H1738.08V995.06H1725.67L1725.68 995.07ZM1738.09 973.31H1742.66C1744.84 973.31 1746.47 972.69 1747.56 971.46C1748.65 970.23 1749.19 968.81 1749.19 967.22C1749.19 965.63 1748.65 964.28 1747.56 963.19C1746.47 962.1 1744.84 961.56 1742.66 961.56H1738.09V973.31Z" fill="white"/>
<path d="M1423.59 1247.21L1405.2 1297.86L1367.21 1239.33C1335.34 1235.99 1303.13 1234.51 1271.06 1234.87L1330.31 1326.83L1494.44 1326.85L1511.75 1267.78C1482.78 1259.27 1453.32 1252.44 1423.59 1247.21Z" fill="black"/>
<path d="M1133.1 1248.06L1131.56 1291.14L1119.74 1250.6C1090.23 1256.47 1060.95 1264.01 1032.55 1273.01L1045.25 1326.84L1184.72 1326.81L1249.03 1235.42C1210.15 1236.89 1171.37 1241.11 1133.09 1248.05L1133.1 1248.06Z" fill="black"/>
<path d="M1733.95 1326.78L1631.11 974.09H1522.74L1434.13 1218.18C1539.88 1234.09 1642.51 1271.36 1733.95 1326.78ZM1576.65 1076.39L1612.72 1221.81L1538.72 1191.81L1576.65 1076.39Z" fill="black"/>
<path d="M1347.98 1209.71L1308.87 1149.45L1435.08 974.07H1329.24L1228.37 1117.2L1233.53 974.08H1142.88L1133.82 1227.72C1204.03 1212.47 1276.19 1206.39 1347.98 1209.71Z" fill="black"/>
<path d="M1115.38 1232.21L1040.12 974.09L929.73 973.82L804.73 1326.82L886.41 1326.86C954.496 1285.69 1032.84 1252.35 1115.38 1232.21ZM985.65 1076.39L1014.72 1194.81L936.72 1226.81L985.65 1076.39Z" fill="black"/>
<path d="M877.72 973.81L777.36 974.1L717.01 1192.81L668.98 974.11L625.72 973.81L555.37 1199.37L505.92 974.11L414.77 974.12L501.42 1326.87H592.07L637.89 1181.23L673.09 1326.86L762.72 1326.81L877.72 973.81Z" fill="black"/>
<path d="M229.38 966.57C117.97 966.57 44.76 1047.21 41.81 1144.97C38.5 1243.74 116.1 1334.45 227 1334.44C339.42 1334.44 410.54 1253.3 413.41 1155.03C416.21 1056.26 339.26 966.56 229.37 966.57H229.38ZM322.64 1150.5C320.97 1206.94 276.88 1246.25 222.69 1246.25C168.5 1246.25 130.56 1206.95 132.74 1150.5C134.92 1094.06 176.99 1054.75 231.17 1054.75C285.36 1054.75 324.82 1094.05 322.64 1150.49V1150.5Z" fill="black"/>
<path d="M1254.83 367.92C1254.83 465.22 1217.06 553.68 1155.39 619.47L1145.69 629.167L1271.44 754.94L1148.41 877.97L1022.65 752.215L886.92 887.94L618.44 619.46C556.77 553.68 519 465.21 519 367.92C519 164.72 683.72 0 886.92 0C1090.12 0 1254.84 164.72 1254.84 367.92H1254.83Z" fill="white"/>
<path d="M1211.98 755.35L1021.21 564.55L887 698.76L854.2 665.96L790.9 729.26L887 825.36L1020.86 691.51L1148.34 818.99L1211.98 755.35Z" fill="black"/>
<path d="M1212 366C1212 186.42 1066.37 40.8701 886.76 41.0001C707.46 41.1301 562 186.69 562 366C562 451.95 595.36 530.1 649.84 588.2L727.42 665.78C744.9 683.26 773.24 683.26 790.72 665.78C808.2 648.3 808.2 619.96 790.72 602.48L715.51 527.27C675.28 484.36 650.98 426.35 652.03 362.65C654.13 234.68 759.32 131.43 887.31 131.6C1016.96 131.77 1122 236.91 1122 366.6C1122 428.75 1097.88 485.25 1058.48 527.27L1053.03 532.72L1116.33 596.02L1124.15 588.2C1178.63 530.09 1211.99 451.94 1211.99 365.99L1212 366Z" fill="url(#owk-gradient)"/>
<path d="M887.21 175.92C782.27 175.92 697.21 260.98 697.21 365.92C697.21 394.39 703.48 421.39 714.7 445.64C717.52 451.73 720.65 457.64 724.08 463.36C732.42 473.09 744.8 479.27 758.63 479.27C767.85 479.27 776.43 476.52 783.6 471.8C788.79 468.38 793.24 463.93 796.66 458.74C801.38 451.57 804.13 442.99 804.13 433.77C804.13 427.94 803.02 422.38 801.03 417.26C799.32 414.36 797.74 411.36 796.32 408.28C790.48 395.58 787.22 381.44 787.22 366.54C787.22 311.31 831.99 266.54 887.22 266.54C942.45 266.54 987.22 311.31 987.22 366.54C987.22 392.99 976.95 417.03 960.19 434.91L824.07 571.34L887.22 634.49L1025.87 495.84C1057.72 461.87 1077.22 416.18 1077.22 365.94C1077.22 261 992.16 175.94 887.22 175.94L887.21 175.92Z" fill="url(#owk-gradient)"/>
<defs>
<linearGradient id="owk-gradient" x1="629" y1="562" x2="1090" y2="101" gradientUnits="userSpaceOnUse">
<stop stop-color="#FF8827"/>
<stop offset="1" stop-color="#FF741F"/>
</linearGradient>
</defs>
</svg>
